<?xml version="1.0" standalone="no"?>
<!DOCTYPE svg PUBLIC "-//W3C//DTD SVG 1.1//EN" "http://www.w3.org/Graphics/SVG/1.1/DTD/svg11.dtd" >
<svg xmlns="http://www.w3.org/2000/svg" xmlns:xlink="http://www.w3.org/1999/xlink" version="1.1">
<metadata></metadata>
<defs>
<font id="dinbek_mediumregular" horiz-adv-x="1091" >
<font-face units-per-em="2048" ascent="1638" descent="-410" />
<missing-glyph horiz-adv-x="491" />
<glyph horiz-adv-x="0" />
<glyph unicode="&#xd;" horiz-adv-x="491" />
<glyph unicode=" "  horiz-adv-x="491" />
<glyph unicode="&#x09;" horiz-adv-x="491" />
<glyph unicode="&#xa0;" horiz-adv-x="491" />
<glyph unicode="!" horiz-adv-x="679" d="M248 1458h254l-45 -1024h-164zM260 0v223h229v-223h-229z" />
<glyph unicode="&#x22;" horiz-adv-x="909" d="M160 1067v391h207v-391h-207zM543 1067v391h207v-391h-207z" />
<glyph unicode="#" horiz-adv-x="1376" d="M139 426v192h193l41 254h-166v193h194l64 401h219l-63 -401h278l64 401h217l-64 -401h160v-193h-189l-40 -254h161v-192h-192l-68 -426h-217l68 426h-281l-65 -426h-220l68 426h-162zM549 618h280l39 254h-278z" />
<glyph unicode="$" horiz-adv-x="1245" d="M61 180l148 146q139 -139 338 -140v455l-53 6q-176 20 -277 119q-106 104 -106 276q0 184 118 297q111 106 299 127v185h168v-183q219 0 391 -163l-141 -140q-119 111 -268 111v-442l70 -9q391 -44 391 -409q0 -188 -131 -301q-117 -102 -312 -121v-227h-168v221 q-279 0 -467 192zM326 1051q0 -166 221 -203v426q-98 -8 -159.5 -67.5t-61.5 -155.5zM678 190q242 23 242 220q0 111 -70 159q-49 35 -172 56v-435z" />
<glyph unicode="%" horiz-adv-x="1724" d="M119 985v207q0 127 80 204t207 77t206.5 -77t79.5 -204v-207q0 -127 -80 -202.5t-206 -75.5q-125 0 -206 76.5t-81 201.5zM276 991q0 -145 130 -145q129 0 129 145v195q0 147 -129 147t-130 -147v-195zM434 0l688 1458h166l-686 -1458h-168zM1032 266v207q0 127 80 204 t207 77t207 -77t80 -204v-207q0 -127 -80 -203.5t-207 -76.5t-207 76.5t-80 203.5zM1190 272q0 -147 129 -147t129 147v195q0 147 -129 147t-129 -147v-195z" />
<glyph unicode="&#x26;" horiz-adv-x="1495" d="M139 422q0 135 88 242q63 80 201 170q-152 176 -152 313q0 147 107 237q100 86 250 86q147 0 246.5 -90t99.5 -235q0 -150 -156 -258l-106 -74l307 -367q78 113 78 293h201q0 -279 -146 -448l244 -291h-268l-119 143q-180 -156 -404 -155q-213 0 -338 108 q-133 115 -133 326zM346 426q0 -111 76 -179.5t188 -68.5q152 0 279 113l-346 411q-96 -66 -137 -114q-59 -72 -60 -162zM489 1145q0 -68 113 -201l70 47q106 72 106 152q0 63 -41 104t-104 41q-66 0 -105 -39t-39 -104z" />
<glyph unicode="'" horiz-adv-x="526" d="M160 1067v391h207v-391h-207z" />
<glyph unicode="(" horiz-adv-x="649" d="M176 240v979q0 156 47 237q35 59 166 195l141 -142l-63 -63q-82 -82 -82 -240v-954q0 -106 31 -168q24 -49 114 -135l-141 -142l-92 95q-121 123 -121 338z" />
<glyph unicode=")" horiz-adv-x="649" d="M119 -49l63 63q80 96 80 238v954q0 104 -33 168q-27 53 -110 133l143 144l90 -95q123 -129 123 -337v-979q0 -145 -49 -238q-35 -66 -164 -195z" />
<glyph unicode="*" horiz-adv-x="993" d="M125 954l235 125l-235 127l76 133l227 -141l-8 266h153l-8 -266l228 141l75 -133l-235 -127l235 -125l-75 -133l-228 142l8 -269h-153l8 269l-227 -142z" />
<glyph unicode="+" d="M104 461v194h345v342h194v-342h344v-194h-344v-344h-194v344h-345z" />
<glyph unicode="," horiz-adv-x="557" d="M160 238h237v-361l-237 -194v555z" />
<glyph unicode="-" horiz-adv-x="872" d="M137 471v195h598v-195h-598z" />
<glyph unicode="." horiz-adv-x="569" d="M160 0v250h250v-250h-250z" />
<glyph unicode="/" horiz-adv-x="778" d="M0 -152l584 1762h200l-583 -1762h-201z" />
<glyph unicode="0" d="M125 406v647q0 186 116.5 301.5t303.5 115.5q184 0 303 -116.5t119 -300.5v-647q0 -186 -118 -302t-304 -116q-184 0 -302 116.5t-118 301.5zM334 412q0 -106 53 -172t158 -66q100 0 160 70q53 66 53 168v635q0 104 -55.5 170.5t-157.5 66.5q-104 0 -157.5 -65.5 t-53.5 -171.5v-635z" />
<glyph unicode="1" d="M233 981v231l285 246h209v-1458h-209v1231z" />
<glyph unicode="2" d="M129 0v186l561 682q78 94 78 195q0 100 -56.5 160.5t-156.5 60.5q-102 0 -158.5 -60.5t-56.5 -164.5h-209q0 186 118 298.5t306 112.5t305 -110.5t117 -298.5q0 -94 -37 -170q-27 -55 -100 -146l-457 -559h594v-186h-848z" />
<glyph unicode="3" d="M86 395h209q0 -102 66.5 -161.5t170.5 -59.5q109 0 173.5 66.5t64.5 175.5q0 240 -244 239h-34v183h34q221 0 222 221q0 98 -58.5 161.5t-157.5 63.5q-193 0 -219 -209h-209q0 178 127 289q121 109 301 109q184 0 304 -112t120 -296q0 -219 -182 -311q205 -90 205 -344 q0 -250 -195 -363q-106 -61 -252 -61q-195 0 -317 106q-129 111 -129 303z" />
<glyph unicode="4" d="M72 219v195l514 1044h225l-512 -1044h363v340h202v-340h156v-195h-156v-219h-202v219h-590z" />
<glyph unicode="5" d="M129 377h209q25 -203 213 -203q221 0 221 313q0 305 -213 306q-164 0 -207 -131h-190v796h786v-186h-598v-385q80 84 242 84q389 -1 389 -484q0 -502 -430 -501q-289 0 -391 233q-31 70 -31 158z" />
<glyph unicode="6" d="M115 424q0 137 108 358l332 676h223l-313 -627q55 23 129 23q172 0 280 -127q103 -119 103 -295q0 -199 -116 -321.5t-314 -122.5q-197 0 -314.5 119.5t-117.5 316.5zM324 428q0 -109 55 -178q59 -76 166 -76q106 0 168 76q55 67 55 178q0 106 -59.5 179t-163.5 73 q-109 0 -165 -70.5t-56 -181.5z" />
<glyph unicode="7" d="M129 1042v416h868v-186l-487 -1272h-225l489 1272h-444v-230h-201z" />
<glyph unicode="8" d="M96 412q0 221 201 342q-176 104 -176 313q0 180 120.5 291.5t303.5 111.5q184 0 305 -109.5t121 -293.5q0 -207 -176 -313q200 -121 200 -342q0 -188 -130 -306t-320 -118q-195 0 -322 115.5t-127 308.5zM305 416q0 -102 68.5 -172t171.5 -70q100 0 169.5 71t69.5 171 q0 102 -68.5 172.5t-170.5 70.5q-100 0 -170 -71.5t-70 -171.5zM330 1061q0 -96 59.5 -158.5t155.5 -62.5q94 0 155.5 63.5t61.5 157.5t-61.5 158.5t-155.5 64.5q-96 0 -155.5 -63.5t-59.5 -159.5z" />
<glyph unicode="9" d="M115 1026q0 199 116.5 321.5t313.5 122.5t314.5 -119.5t117.5 -316.5q0 -137 -109 -358l-331 -676h-224l314 627q-55 -23 -131 -23q-172 0 -279 127q-102 121 -102 295zM324 1030q0 -109 55 -176q61 -76 166 -76q109 0 168 74q55 67 55 178q0 106 -59.5 180t-163.5 74 q-106 0 -163.5 -72.5t-57.5 -181.5z" />
<glyph unicode=":" horiz-adv-x="620" d="M213 0v250h248v-250h-248zM213 584v250h248v-250h-248z" />
<glyph unicode=";" horiz-adv-x="620" d="M213 584v250h248v-250h-248zM217 238h238v-361l-238 -194v555z" />
<glyph unicode="&#x3c;" horiz-adv-x="2103" d="M106 567l803 803h269l-707 -702h1524v-199h-1524l707 -702h-269z" />
<glyph unicode="=" d="M104 272v195h883v-195h-883zM104 670v194h883v-194h-883z" />
<glyph unicode="&#x3e;" horiz-adv-x="2103" d="M106 469v199h1526l-706 702h268l803 -803l-803 -800h-268l706 702h-1526z" />
<glyph unicode="?" horiz-adv-x="1046" d="M145 1077q0 174 116 283.5t292 109.5t293 -107.5t117 -283.5q0 -115 -99 -252l-157 -221q-37 -51 -37 -110v-62h-209v72q0 109 69 203l160 215q63 86 64 155q0 88 -56.5 146.5t-144.5 58.5t-143.5 -59.5t-55.5 -147.5h-209zM449 0v223h231v-223h-231z" />
<glyph unicode="@" horiz-adv-x="1507" d="M131 334v651q0 479 473 479h299q231 0 352 -123.5t121 -355.5v-989l-196 4v102q-98 -117 -260 -116q-139 0 -231.5 78.5t-117.5 214.5q-12 70 -12 200q0 225 66 340q86 154 293 154q162 0 258 -115v125q0 297 -293 297h-258q-291 0 -291 -297v-639q0 -82 20.5 -129 t81.5 -96l-143 -144q-92 72 -129 158q-33 78 -33 201zM760 479q0 -315 207 -315q209 0 209 315q0 317 -209 318q-125 0 -174 -105q-33 -72 -33 -213z" />
<glyph unicode="A" horiz-adv-x="1280" d="M16 0l535 1458h178l535 -1458h-236l-100 293h-576l-100 -293h-236zM418 481h448l-221 647z" />
<glyph unicode="B" horiz-adv-x="1357" d="M190 0v1458h568q197 0 318.5 -102.5t121.5 -296.5q0 -221 -197 -309q220 -86 220 -338q0 -197 -121 -304.5t-320 -107.5h-590zM412 199h348q106 0 172.5 58.5t66.5 164.5t-65.5 163.5t-173.5 57.5h-348v-444zM412 842h327q238 0 238 209q0 100 -70 157q-63 51 -168 52 h-327v-418z" />
<glyph unicode="C" horiz-adv-x="1286" d="M137 729q0 256 17 344q27 143 125 242q155 155 380 155h3q211 0 346 -119.5t174 -328.5h-226q-59 250 -294 250q-258 0 -297 -305q-6 -49 -7 -238q0 -184 7 -237q35 -305 297 -306q236 0 296 250h224q-37 -207 -174.5 -327.5t-345.5 -120.5q-229 0 -383 155 q-98 98 -125 242q-16 88 -17 344z" />
<glyph unicode="D" horiz-adv-x="1363" d="M190 0v1458h512q207 0 341.5 -103.5t168.5 -303.5q15 -83 15 -312q0 -231 -15 -321q-33 -205 -166 -311.5t-344 -106.5h-512zM412 199h268q158 0 248 98q57 61 69 201q9 85 9 241v131q0 86 -11 123q-35 266 -315 267h-268v-1061z" />
<glyph unicode="E" horiz-adv-x="1234" d="M190 0v1458h932v-198h-710v-426h606v-197h-606v-438h710v-199h-932z" />
<glyph unicode="F" horiz-adv-x="1198" d="M190 0v1458h932v-198h-710v-445h606v-199h-606v-616h-222z" />
<glyph unicode="G" horiz-adv-x="1329" d="M137 729q0 256 17 344q27 143 125 242q155 155 380 155h3q213 0 352 -120.5t178 -331.5h-223q-59 254 -307 254q-258 0 -297 -305q-6 -49 -7 -238q0 -184 7 -237q35 -305 297 -306q147 0 231 95q80 88 80 237v82h-311v188h532v-223q0 -260 -133 -413q-141 -164 -399 -164 q-229 0 -383 155q-98 98 -125 242q-16 88 -17 344z" />
<glyph unicode="H" horiz-adv-x="1415" d="M190 0v1458h222v-622h592v622h221v-1458h-221v637h-592v-637h-222z" />
<glyph unicode="I" horiz-adv-x="602" d="M190 0v1458h222v-1458h-222z" />
<glyph unicode="J" horiz-adv-x="1036" d="M27 129l147 145q88 -88 207 -88q129 0 196.5 80t67.5 211v981h221v-997q0 -215 -135 -344t-350 -129q-209 0 -354 141z" />
<glyph unicode="K" horiz-adv-x="1347" d="M190 0v1458h222v-733l596 733h270l-473 -571l522 -887h-260l-410 719l-245 -295v-424h-222z" />
<glyph unicode="L" horiz-adv-x="1175" d="M190 0v1458h222v-1259h702v-199h-924z" />
<glyph unicode="M" horiz-adv-x="1665" d="M190 0v1458h222l426 -907l417 907h222v-1458h-222v975l-335 -711h-164l-344 711v-975h-222z" />
<glyph unicode="N" horiz-adv-x="1478" d="M190 0v1458h203l674 -1024v1024h221v-1458h-203l-673 1026v-1026h-222z" />
<glyph unicode="O" horiz-adv-x="1323" d="M137 729q0 256 17 344q27 143 125 242q155 155 380 155h3q227 0 385 -155q98 -96 122 -242q17 -96 17 -344q0 -256 -17 -344q-27 -143 -122 -242q-151 -155 -382 -155h-3q-229 0 -383 155q-98 98 -125 242q-16 88 -17 344zM358 729q0 -199 4 -237q33 -305 300 -306 q266 0 296 306q7 61 7 237v129q0 74 -7 109q-27 305 -296 305q-262 0 -297 -305q-6 -53 -7 -238z" />
<glyph unicode="P" horiz-adv-x="1288" d="M190 0v1458h553q205 0 334 -117q133 -122 133 -325q0 -199 -133 -321t-334 -122h-331v-573h-222zM412 774h319q117 0 187.5 63.5t70.5 178.5t-70.5 179.5t-187.5 64.5h-319v-486z" />
<glyph unicode="Q" horiz-adv-x="1323" d="M137 729q0 256 17 344q27 143 125 242q155 155 380 155h3q227 0 385 -155q98 -96 122 -242q16 -96 17 -344v-186q0 -86 -10 -123q-18 -135 -84 -221l143 -142l-123 -123l-145 146q-129 -92 -305 -92q-229 0 -383 155q-98 98 -125 242q-16 88 -17 344zM358 729 q0 -199 4 -237q33 -305 300 -306q84 0 149 47l-154 154l123 123l142 -141q43 86 43 360v129q0 74 -7 109q-27 305 -296 305q-262 0 -297 -305q-6 -53 -7 -238z" />
<glyph unicode="R" horiz-adv-x="1341" d="M190 0v1458h566q199 0 325.5 -114.5t126.5 -311.5q0 -143 -76.5 -245.5t-213.5 -141.5l335 -645h-258l-307 614h-276v-614h-222zM412 803h327q111 0 179.5 59t68.5 168t-68.5 169.5t-179.5 60.5h-327v-457z" />
<glyph unicode="S" horiz-adv-x="1208" d="M61 180l148 146q139 -139 373 -140q301 0 301 224q0 182 -217 213l-172 24q-383 55 -383 395q0 207 143 322q131 106 344 106q270 0 453 -165l-142 -140q-119 113 -317 113q-115 0 -186 -55q-80 -61 -80 -172q0 -170 219 -203l166 -25q391 -57 391 -407q0 -211 -162 -326 q-143 -102 -362 -102q-326 0 -517 192z" />
<glyph unicode="T" horiz-adv-x="1146" d="M61 1260v198h1024v-198h-401v-1260h-221v1260h-402z" />
<glyph unicode="U" horiz-adv-x="1382" d="M168 492v966h221v-956q0 -143 80 -229.5t221 -86.5q139 0 221 87t82 229v956h221v-966q0 -225 -149.5 -364.5t-374.5 -139.5q-227 0 -374.5 138t-147.5 366z" />
<glyph unicode="V" horiz-adv-x="1155" d="M10 1458h230l335 -1061l336 1061h234l-483 -1458h-173z" />
<glyph unicode="W" horiz-adv-x="1783" d="M23 1458h233l254 -1042l293 1042h178l293 -1042l254 1042h233l-381 -1458h-192l-297 1022l-295 -1022h-193z" />
<glyph unicode="X" horiz-adv-x="1183" d="M20 0l451 748l-422 710h254l287 -522l289 522h254l-422 -710l452 -748h-256l-317 559l-316 -559h-254z" />
<glyph unicode="Y" horiz-adv-x="1114" d="M10 1458h242l305 -641l305 641h242l-436 -858v-600h-222v600z" />
<glyph unicode="Z" horiz-adv-x="1130" d="M98 0v190l674 1070h-645v198h905v-180l-678 -1079h678v-199h-934z" />
<glyph unicode="[" horiz-adv-x="710" d="M176 -152v1762h447v-187h-238v-1388h238v-187h-447z" />
<glyph unicode="\" horiz-adv-x="778" d="M0 1593h201l577 -1745h-200z" />
<glyph unicode="]" horiz-adv-x="710" d="M88 33h242v1392h-242v185h447v-1762h-447v185z" />
<glyph unicode="^" horiz-adv-x="1169" d="M137 821l352 652h191l350 -652h-217l-229 424l-230 -424h-217z" />
<glyph unicode="_" horiz-adv-x="1169" d="M0 -209h1169v-143h-1169v143z" />
<glyph unicode="`" horiz-adv-x="1024" d="M233 1559h232l153 -332h-157z" />
<glyph unicode="a" horiz-adv-x="1085" d="M88 305q0 147 109 227q96 72 249 72h275v74q0 194 -225 194h-2q-147 0 -228 -100l-137 129q127 150 373 150q428 0 428 -357v-694h-205v94q-106 -106 -276 -106q-164 0 -259 75q-102 82 -102 242zM291 309q0 -147 190 -147q123 0 181.5 47t58.5 166v84h-244 q-186 0 -186 -150z" />
<glyph unicode="b" horiz-adv-x="1132" d="M166 0v1458h209v-524q98 117 272 117q217 0 303 -168q66 -125 66 -363q0 -244 -66 -366q-88 -166 -305 -166q-170 0 -274 123v-111h-205zM375 520q0 -346 217 -346q133 0 182 115q33 75 33 231q0 154 -33 232q-47 112 -180 112h-2q-133 0 -184 -114q-33 -76 -33 -230z " />
<glyph unicode="c" horiz-adv-x="993" d="M225 897q121 154 350 154q203 0 343 -146l-144 -139q-90 98 -199 98q-253 0 -253 -341v-3q0 -346 253 -346q106 0 199 98l144 -137q-139 -147 -343 -147q-227 0 -350 155q-112 142 -112 373q0 242 112 381z" />
<glyph unicode="d" horiz-adv-x="1132" d="M117 520q0 242 65 365q88 166 303 166q170 0 273 -117v524h209v-1458h-205v111q-102 -123 -275 -123q-219 0 -305 166q-65 121 -65 359v7zM326 520q0 -346 217 -346q133 0 182 115q33 75 33 231q0 154 -33 232q-47 112 -180 112h-2q-133 0 -185 -114q-32 -74 -32 -221v-9 z" />
<glyph unicode="e" horiz-adv-x="1103" d="M113 520q0 229 102 371q115 160 338 160q211 0 330 -148q111 -135 110 -352v-92h-674q0 -131 68 -211t197 -80q145 0 252 106l133 -124q-162 -162 -389 -162q-467 0 -467 532zM319 604h467q0 78 -28 141q-59 131 -205 132q-115 0 -178 -80q-55 -74 -56 -193z" />
<glyph unicode="f" horiz-adv-x="671" d="M80 860v160h119v160q0 131 76.5 209.5t207.5 78.5h131v-178h-92q-115 0 -114 -121v-149h206v-160h-206v-860h-209v860h-119z" />
<glyph unicode="g" horiz-adv-x="1124" d="M182 891q88 160 301 160q168 0 273 -123v110h202v-1032q0 -201 -121.5 -319.5t-322.5 -118.5q-217 0 -367 137l134 133q98 -92 225 -92q244 0 244 264v133q-99 -118 -266 -118h-3q-364 0 -364 511q0 234 65 355zM326 539q0 -326 213 -326q129 0 178 106q33 73 33 220 q0 145 -33 219q-47 106 -178 106q-213 0 -213 -325z" />
<glyph unicode="h" horiz-adv-x="1159" d="M166 0v1458h209v-524q109 117 268 117q168 0 264.5 -105.5t96.5 -275.5v-670h-209v637q0 102 -54.5 164.5t-154.5 62.5q-102 0 -156.5 -61.5t-54.5 -165.5v-637h-209z" />
<glyph unicode="i" horiz-adv-x="540" d="M160 1243v221h221v-221h-221zM166 0v1038h209v-1038h-209z" />
<glyph unicode="j" horiz-adv-x="540" d="M-39 -246h92q113 0 113 121v1163h209v-1175q0 -133 -76 -210t-209 -77h-129v178zM160 1243v221h221v-221h-221z" />
<glyph unicode="k" horiz-adv-x="1122" d="M166 0v1458h209v-899l403 479h254l-360 -407l405 -631h-258l-291 479l-153 -174v-305h-209z" />
<glyph unicode="l" horiz-adv-x="636" d="M160 287v1171h209v-1159q0 -121 112 -121h92v-178h-129q-133 0 -208.5 77t-75.5 210z" />
<glyph unicode="m" horiz-adv-x="1796" d="M166 0v1038h205v-104q104 117 276 117q199 0 295 -152q123 152 326 152q174 0 273 -105.5t99 -281.5v-664h-208v633q0 231 -209 231q-98 0 -156.5 -61.5t-58.5 -159.5v-643h-209v633q0 231 -209 231q-104 0 -159.5 -63.5t-55.5 -167.5v-633h-209z" />
<glyph unicode="n" horiz-adv-x="1163" d="M166 0v1038h205v-104q109 117 276 117q174 0 271 -109q90 -102 90 -278v-664h-209v633q0 231 -209 231q-104 0 -159.5 -63.5t-55.5 -167.5v-633h-209z" />
<glyph unicode="o" horiz-adv-x="1099" d="M117 520q0 530 432 531q227 0 338 -158q96 -137 96 -373q0 -532 -434 -532q-432 0 -432 532zM326 520q0 -346 223 -346q225 0 225 346q0 344 -225 344q-223 0 -223 -344z" />
<glyph unicode="p" horiz-adv-x="1132" d="M166 -420v1458h205v-110q102 123 274 123q217 0 305 -164q66 -123 66 -367t-66 -366q-86 -166 -303 -166q-172 0 -272 118v-526h-209zM375 520q0 -346 217 -346q133 0 182 115q33 75 33 231q0 154 -33 232q-47 112 -180 112h-2q-133 0 -184 -114q-33 -76 -33 -230z" />
<glyph unicode="q" horiz-adv-x="1132" d="M117 520q0 244 65 367q88 164 305 164q170 0 275 -123v110h205v-1458h-209v526q-99 -118 -270 -118h-3q-217 0 -305 170q-63 123 -63 362zM326 520q0 -346 217 -346q133 0 182 115q33 75 33 231q0 154 -33 232q-47 112 -180 112h-2q-133 0 -185 -114q-32 -74 -32 -221v-9 z" />
<glyph unicode="r" horiz-adv-x="899" d="M166 0v1038h205v-112q90 125 276 125q146 -1 248 -99l-158 -157q-69 69 -153 69h-2q-96 0 -151.5 -67.5t-55.5 -165.5v-631h-209z" />
<glyph unicode="s" horiz-adv-x="1021" d="M66 137l137 137q103 -108 295 -108h4q227 0 227 143q0 111 -139 123l-166 14q-152 12 -223 72q-84 68 -84 215q0 154 123 240q109 78 268 78q250 0 385 -117l-131 -133q-92 76 -256 76q-188 0 -189 -134q0 -106 144 -118l164 -15q309 0 309 -293q0 -170 -137 -256 q-115 -73 -290 -73h-5q-285 0 -436 149z" />
<glyph unicode="t" horiz-adv-x="700" d="M72 860v160h118v315h209v-315h201v-160h-201v-561q0 -121 115 -121h86v-178h-125q-127 0 -206 81t-79 208v571h-118z" />
<glyph unicode="u" horiz-adv-x="1163" d="M156 375v663h209v-632q0 -104 53 -168t155 -64q104 0 159.5 62.5t55.5 169.5v632h209v-1038h-204v104q-103 -116 -274 -116h-3q-172 0 -266 106.5t-94 280.5z" />
<glyph unicode="v" horiz-adv-x="964" d="M16 1038h222l245 -731l244 731h221l-381 -1038h-170z" />
<glyph unicode="w" horiz-adv-x="1521" d="M16 1038h222l200 -731l242 731h162l239 -731l201 731h223l-323 -1038h-178l-244 725l-242 -725h-180z" />
<glyph unicode="x" horiz-adv-x="1030" d="M45 0l356 530l-342 508h252l205 -338l203 338h252l-340 -508l354 -530h-252l-217 354l-219 -354h-252z" />
<glyph unicode="y" horiz-adv-x="958" d="M16 1038h222l247 -731l242 731h223l-458 -1245q-76 -205 -289 -205h-84v189h53q111 0 150 110l57 162z" />
<glyph unicode="z" horiz-adv-x="960" d="M88 0v166l516 686h-487v186h745v-166l-520 -686h520v-186h-774z" />
<glyph unicode="{" horiz-adv-x="833" d="M92 637v184h76q135 0 135 162v342q0 285 293 285h145v-187h-79q-92 0 -121 -32.5t-29 -126.5v-330q0 -143 -135 -205q135 -59 135 -205v-329q0 -109 41 -140q29 -20 109 -20h79v-187h-145q-293 0 -293 285v342q0 162 -135 162h-76z" />
<glyph unicode="|" horiz-adv-x="692" d="M242 -152v1762h209v-1762h-209z" />
<glyph unicode="}" horiz-adv-x="833" d="M92 35h80q92 0 121 32.5t29 127.5v329q0 143 137 205q-137 59 -137 205v330q0 109 -41 139q-29 20 -109 20h-80v187h146q293 0 292 -285v-342q0 -162 138 -162h73v-184h-73q-137 0 -138 -162v-342q0 -285 -292 -285h-146v187z" />
<glyph unicode="~" horiz-adv-x="1175" d="M88 571q160 160 301 160q90 0 227 -67q100 -49 164 -50q84 0 174 91l133 -132q-160 -160 -303 -159q-92 0 -229 67q-100 49 -162 49q-84 0 -174 -90z" />
<glyph unicode="&#xa1;" horiz-adv-x="679" d="M178 -420l45 1024h164l45 -1024h-254zM190 815v223h230v-223h-230z" />
<glyph unicode="&#xa2;" horiz-adv-x="1019" d="M113 750q0 203 88 337q96 150 286 185v186h164v-184q168 -18 289 -152l-139 -135q-74 84 -168 98v-671q90 12 168 98l139 -135q-121 -127 -289 -152v-225h-164v227q-188 33 -286 185q-88 135 -88 338zM322 750q0 -295 184 -332v663q-100 -16 -148 -129q-37 -86 -36 -202z " />
<glyph unicode="&#xa3;" horiz-adv-x="1155" d="M88 641v160h127v196q0 215 135 344t352 129q209 0 355 -141l-148 -145q-88 88 -207 88q-129 0 -196.5 -80t-67.5 -211v-180h264v-160h-264v-442h619v-199h-842v641h-127z" />
<glyph unicode="&#xa5;" horiz-adv-x="1114" d="M10 1458h242l307 -643l303 643h240l-299 -594h178v-159h-260l-53 -105v-106h313v-160h-313v-334h-222v334h-313v160h313v106l-53 105h-260v159h178z" />
<glyph unicode="&#xa7;" horiz-adv-x="1112" d="M152 530q0 213 198 320q-172 84 -172 274q0 160 113 256q104 90 268 90q264 0 356 -200q29 -63 29 -137h-201q0 156 -184 155q-180 0 -180 -158q0 -121 153 -165l144 -43q291 -88 291 -381q0 -100 -54.5 -187.5t-144.5 -132.5q180 -80 180 -289q0 -166 -111.5 -265 t-279.5 -99q-170 0 -278 88q-119 94 -119 260h205q0 -162 192 -162q84 0 135 45t51 127q0 133 -159 180l-144 44q-289 86 -288 380zM356 535q0 -96 54.5 -158t148.5 -62q92 0 147.5 63t55.5 157t-55.5 157.5t-147.5 63.5q-98 0 -150.5 -60.5t-52.5 -160.5z" />
<glyph unicode="&#xa8;" horiz-adv-x="1024" d="M197 1237v221h188v-221h-188zM639 1237v221h188v-221h-188z" />
<glyph unicode="&#xa9;" horiz-adv-x="1765" d="M141 729q0 311 215 526t527 215q311 0 526 -215t215 -526t-215 -526t-526 -215t-526.5 215t-215.5 526zM291 729q0 -252 170 -427t422 -175q254 0 423 174t169 428q0 252 -170 427t-422 175q-254 0 -423 -174t-169 -428zM528 729q0 178 93 289q100 121 274 121 q143 0 268 -107l-94 -96q-82 72 -174 72q-221 0 -221 -279t221 -278q94 0 174 71l94 -96q-119 -106 -268 -107q-172 0 -272 121q-94 113 -95 289z" />
<glyph unicode="&#xaa;" horiz-adv-x="925" d="M106 872q0 119 87 183q76 57 198 57h215v57q0 152 -178 152q-113 0 -178 -80l-113 107q100 119 299 118q340 0 340 -284v-553h-166v73q-82 -82 -217 -81q-287 0 -287 251zM272 877q0 -113 146 -113q98 0 143 36t45 128v65h-190q-143 0 -144 -116z" />
<glyph unicode="&#xab;" horiz-adv-x="1212" d="M76 557l471 469v-252l-219 -217l219 -219v-252zM594 557l471 469v-252l-221 -217l221 -219v-252z" />
<glyph unicode="&#xac;" d="M98 489v195h893v-483h-194v288h-699z" />
<glyph unicode="&#xad;" d="M104 471v195h883v-195h-883z" />
<glyph unicode="&#xae;" horiz-adv-x="1765" d="M141 729q0 311 215 526t527 215q311 0 526 -215t215 -526t-215 -526t-526 -215t-526.5 215t-215.5 526zM289 729q0 -254 170 -429t424 -175t423 175t169 429q0 252 -170 428t-422 176q-256 0 -425 -174t-169 -430zM625 330v800h301q111 0 184.5 -68.5t73.5 -176.5 q0 -160 -158 -217l178 -338h-166l-164 317h-102v-317h-147zM772 764h135q55 0 93 34t38 87q0 51 -38.5 86t-92.5 35h-135v-242z" />
<glyph unicode="&#xaf;" horiz-adv-x="1024" d="M195 1274v149h634v-149h-634z" />
<glyph unicode="&#xb0;" horiz-adv-x="964" d="M125 1124q0 150 104.5 254.5t251.5 104.5t253 -106t106 -253q0 -150 -104.5 -253t-254.5 -103q-147 0 -251.5 104.5t-104.5 251.5zM297 1124q0 -80 52 -134t132 -54t133.5 54t53.5 134t-53.5 135.5t-133.5 55.5q-78 0 -131 -56.5t-53 -134.5z" />
<glyph unicode="&#xb1;" d="M104 0v195h883v-195h-883zM104 647v195h345v344h194v-344h344v-195h-344v-346h-194v346h-345z" />
<glyph unicode="&#xb2;" horiz-adv-x="716" d="M92 584v141l330 381q45 51 45 106q0 113 -109 113t-108 -113h-158q0 117 75 185.5t191 68.5q117 0 192 -68.5t75 -185.5q0 -92 -95 -200l-247 -287h342v-141h-533z" />
<glyph unicode="&#xb3;" horiz-adv-x="741" d="M92 831h158q0 -117 123 -116q119 0 119 125q0 123 -125 123h-23v135h23q115 0 114 112q0 115 -110 115q-111 0 -111 -106h-156q0 113 76 180t191 67q117 0 191.5 -67.5t74.5 -181.5q0 -129 -102 -183q114 -59 114 -198q0 -119 -77.5 -191t-198.5 -72t-201 70t-80 188z " />
<glyph unicode="&#xb4;" horiz-adv-x="1024" d="M406 1227l153 332h232l-228 -332h-157z" />
<glyph unicode="&#xb5;" horiz-adv-x="1165" d="M156 -420v1458h209v-632q0 -104 54 -168t156 -64t157.5 63.5t55.5 168.5v632h209v-1038h-204v104q-104 -117 -275 -116q-94 0 -153 51v-459h-209z" />
<glyph unicode="&#xb6;" horiz-adv-x="1304" d="M78 1051q0 195 137 305q125 102 324 102h575v-1878h-209v1680h-221v-1680h-209v1069q-166 0 -281.5 117t-115.5 285z" />
<glyph unicode="&#xb7;" horiz-adv-x="569" d="M160 444v250h250v-250h-250z" />
<glyph unicode="&#xb8;" horiz-adv-x="1024" d="M342 -432l143 301h168l-104 -301h-207z" />
<glyph unicode="&#xb9;" horiz-adv-x="567" d="M82 1126v179l178 153h158v-874h-158v698z" />
<glyph unicode="&#xba;" horiz-adv-x="937" d="M125 1044q0 184 78 295q88 127 266 127q180 0 268 -125q78 -111 78 -297t-78 -296q-88 -127 -268 -127q-344 0 -344 423zM295 1044q0 -272 174 -272q109 0 147 90q27 59 27 182t-27 183q-41 88 -147 88q-174 0 -174 -271z" />
<glyph unicode="&#xbb;" horiz-adv-x="1212" d="M147 86v252l222 219l-222 217v252l474 -469zM666 86v252l219 219l-219 217v252l473 -469z" />
<glyph unicode="&#xbc;" horiz-adv-x="1654" d="M82 1126v179l178 153h158v-874h-158v698zM369 0l686 1458h166l-686 -1458h-166zM983 125v145l301 604h170l-301 -604h186v170h152v-170h82v-145h-82v-125h-152v125h-356z" />
<glyph unicode="&#xbd;" horiz-adv-x="1693" d="M82 1126v179l178 153h158v-874h-158v698zM352 0l686 1458h166l-686 -1458h-166zM1071 0v141l328 381q45 53 45 107q0 113 -109 112q-109 0 -108 -112h-156q0 117 74 185.5t190 68.5q117 0 192 -69t75 -185q0 -92 -95 -201l-247 -287h342v-141h-531z" />
<glyph unicode="&#xbe;" horiz-adv-x="1728" d="M92 831h158q0 -117 123 -116q119 0 119 125q0 123 -125 123h-23v135h23q115 0 114 112q0 115 -110 115q-111 0 -111 -106h-156q0 113 76 180t191 67q117 0 191.5 -67.5t74.5 -181.5q0 -129 -102 -183q114 -59 114 -198q0 -119 -77.5 -191t-198.5 -72t-201 70t-80 188z M455 0l686 1458h166l-686 -1458h-166zM1059 125v145l299 604h172l-301 -604h186v170h150v-170h82v-145h-82v-125h-150v125h-356z" />
<glyph unicode="&#xbf;" horiz-adv-x="1046" d="M84 -39q0 119 96 252l160 221q37 51 37 111v61h209v-74q0 -104 -72 -202l-158 -215q-63 -86 -63 -156q0 -88 55 -145.5t144 -57.5q90 0 145 57.5t55 147.5h209q0 -176 -116.5 -284.5t-292.5 -108.5t-292 108.5t-116 284.5zM367 815v223h229v-223h-229z" />
<glyph unicode="&#xc0;" horiz-adv-x="1280" d="M16 0l535 1458h178l535 -1458h-236l-100 293h-576l-100 -293h-236zM354 1932h232l153 -332h-157zM418 481h448l-221 647z" />
<glyph unicode="&#xc1;" horiz-adv-x="1280" d="M16 0l535 1458h178l535 -1458h-236l-100 293h-576l-100 -293h-236zM418 481h448l-221 647zM529 1600l153 332h232l-228 -332h-157z" />
<glyph unicode="&#xc2;" horiz-adv-x="1280" d="M16 0l535 1458h178l535 -1458h-236l-100 293h-576l-100 -293h-236zM283 1600l264 329h176l264 -329h-174l-178 198l-178 -198h-174zM418 481h448l-221 647z" />
<glyph unicode="&#xc3;" horiz-adv-x="1280" d="M16 0l535 1458h178l535 -1458h-236l-100 293h-576l-100 -293h-236zM281 1747q113 113 213 113q70 0 153 -49q68 -39 113 -39q55 0 121 63l98 -96q-113 -113 -213 -113q-55 0 -144 43t-124 43q-53 0 -119 -61zM418 481h448l-221 647z" />
<glyph unicode="&#xc4;" horiz-adv-x="1280" d="M16 0l535 1458h178l535 -1458h-236l-100 293h-576l-100 -293h-236zM320 1610v221h188v-221h-188zM418 481h448l-221 647zM762 1610v221h188v-221h-188z" />
<glyph unicode="&#xc5;" horiz-adv-x="1280" d="M16 0l535 1458h178l535 -1458h-236l-100 293h-576l-100 -293h-236zM379 1792q0 104 76 180t180 76t180 -76t76 -180q0 -106 -75 -181t-181 -75t-181 74.5t-75 181.5zM418 481h448l-221 647zM504 1792q0 -55 38 -92t93 -37q53 0 92 38t39 91t-39 91t-92 38t-92 -38 t-39 -91z" />
<glyph unicode="&#xc6;" horiz-adv-x="1949" d="M10 0l766 1458h1061v-198h-711v-429h607v-198h-607v-434h711v-199h-932v332h-481l-172 -332h-242zM520 520h385v740z" />
<glyph unicode="&#xc7;" horiz-adv-x="1286" d="M137 729q0 256 17 344q27 143 125 242q156 156 383 155q211 0 346 -119.5t174 -328.5h-226q-59 250 -294 250q-258 0 -297 -305q-6 -49 -7 -238q0 -184 7 -237q35 -305 297 -306q236 0 296 250h222q-62 -368 -406 -438v-223h-209v221q-158 25 -270.5 129t-140.5 260 q-16 88 -17 344z" />
<glyph unicode="&#xc8;" horiz-adv-x="1234" d="M190 0v1458h932v-198h-710v-426h606v-197h-606v-438h710v-199h-932zM358 1932h232l153 -332h-157z" />
<glyph unicode="&#xc9;" horiz-adv-x="1234" d="M190 0v1458h932v-198h-710v-426h606v-197h-606v-438h710v-199h-932zM531 1600l153 332h232l-228 -332h-157z" />
<glyph unicode="&#xca;" horiz-adv-x="1234" d="M190 0v1458h932v-198h-710v-426h606v-197h-606v-438h710v-199h-932zM285 1600l264 329h176l264 -329h-174l-178 198l-178 -198h-174z" />
<glyph unicode="&#xcb;" horiz-adv-x="1234" d="M190 0v1458h932v-198h-710v-426h606v-197h-606v-438h710v-199h-932zM322 1610v221h188v-221h-188zM764 1610v221h188v-221h-188z" />
<glyph unicode="&#xcc;" horiz-adv-x="602" d="M57 1932h232l153 -332h-157zM190 0v1458h222v-1458h-222z" />
<glyph unicode="&#xcd;" horiz-adv-x="602" d="M166 1600l153 332h232l-228 -332h-157zM190 0v1458h222v-1458h-222z" />
<glyph unicode="&#xce;" horiz-adv-x="602" d="M-59 1600l264 329h176l264 -329h-174l-178 198l-178 -198h-174zM190 0v1458h222v-1458h-222z" />
<glyph unicode="&#xcf;" horiz-adv-x="602" d="M-16 1610v221h188v-221h-188zM190 0v1458h222v-1458h-222zM426 1610v221h188v-221h-188z" />
<glyph unicode="&#xd1;" horiz-adv-x="1476" d="M190 0v1458h203l674 -1024v1024h221v-1458h-203l-673 1026v-1026h-222zM387 1747q113 113 213 113q70 0 153 -49q68 -39 113 -39q55 0 121 63l98 -96q-113 -113 -213 -113q-55 0 -144 43t-124 43q-53 0 -119 -61z" />
<glyph unicode="&#xd2;" horiz-adv-x="1325" d="M137 729q0 256 17 344q27 143 125 242q156 156 383 155q227 0 385 -155q98 -96 122 -242q17 -96 17 -344q0 -256 -17 -344q-27 -143 -122 -242q-152 -156 -385 -155q-229 0 -383 155q-98 98 -125 242q-16 88 -17 344zM358 729q0 -199 4 -237q33 -305 300 -306 q266 0 296 306q7 61 7 237v129q0 74 -7 109q-27 305 -296 305q-262 0 -297 -305q-6 -53 -7 -238zM383 1932h232l153 -332h-157z" />
<glyph unicode="&#xd3;" horiz-adv-x="1325" d="M137 729q0 256 17 344q27 143 125 242q156 156 383 155q227 0 385 -155q98 -96 122 -242q17 -96 17 -344q0 -256 -17 -344q-27 -143 -122 -242q-152 -156 -385 -155q-229 0 -383 155q-98 98 -125 242q-16 88 -17 344zM358 729q0 -199 4 -237q33 -305 300 -306 q266 0 296 306q7 61 7 237v129q0 74 -7 109q-27 305 -296 305q-262 0 -297 -305q-6 -53 -7 -238zM556 1600l153 332h232l-228 -332h-157z" />
<glyph unicode="&#xd4;" horiz-adv-x="1325" d="M137 729q0 256 17 344q27 143 125 242q156 156 383 155q227 0 385 -155q98 -96 122 -242q17 -96 17 -344q0 -256 -17 -344q-27 -143 -122 -242q-152 -156 -385 -155q-229 0 -383 155q-98 98 -125 242q-16 88 -17 344zM310 1600l264 329h176l264 -329h-174l-178 198 l-178 -198h-174zM358 729q0 -199 4 -237q33 -305 300 -306q266 0 296 306q7 61 7 237v129q0 74 -7 109q-27 305 -296 305q-262 0 -297 -305q-6 -53 -7 -238z" />
<glyph unicode="&#xd5;" horiz-adv-x="1325" d="M137 729q0 256 17 344q27 143 125 242q156 156 383 155q227 0 385 -155q98 -96 122 -242q17 -96 17 -344q0 -256 -17 -344q-27 -143 -122 -242q-152 -156 -385 -155q-229 0 -383 155q-98 98 -125 242q-16 88 -17 344zM310 1747q113 113 213 113q70 0 153 -49 q68 -39 113 -39q55 0 121 63l98 -96q-113 -113 -213 -113q-55 0 -144 43t-124 43q-53 0 -119 -61zM358 729q0 -199 4 -237q33 -305 300 -306q266 0 296 306q7 61 7 237v129q0 74 -7 109q-27 305 -296 305q-262 0 -297 -305q-6 -53 -7 -238z" />
<glyph unicode="&#xd6;" horiz-adv-x="1325" d="M137 729q0 256 17 344q27 143 125 242q156 156 383 155q227 0 385 -155q98 -96 122 -242q17 -96 17 -344q0 -256 -17 -344q-27 -143 -122 -242q-152 -156 -385 -155q-229 0 -383 155q-98 98 -125 242q-16 88 -17 344zM347 1610v221h188v-221h-188zM358 729q0 -199 4 -237 q33 -305 300 -306q266 0 296 306q7 61 7 237v129q0 74 -7 109q-27 305 -296 305q-262 0 -297 -305q-6 -53 -7 -238zM789 1610v221h188v-221h-188z" />
<glyph unicode="&#xd8;" horiz-adv-x="1335" d="M137 729q0 256 17 344q27 143 125 242q156 156 383 155q129 0 245 -55l62 133h170l-107 -221l15 -12q94 -80 122 -242q17 -92 17 -344q0 -256 -17 -344q-27 -143 -122 -242q-152 -156 -385 -155q-127 0 -244 55l-64 -133h-168l105 221l-12 12q-98 98 -125 242 q-16 88 -17 344zM360 729q0 -305 41 -389l424 887q-78 45 -163 45q-260 0 -295 -305q-6 -53 -7 -238zM500 231q76 -45 162 -45q266 0 296 306q7 61 7 237q0 309 -41 389z" />
<glyph unicode="&#xd9;" horiz-adv-x="1382" d="M168 492v966h221v-956q0 -143 80 -229.5t221 -86.5q139 0 221 87t82 229v956h221v-966q0 -225 -149.5 -364.5t-374.5 -139.5q-227 0 -374.5 138t-147.5 366zM413 1932h232l153 -332h-157z" />
<glyph unicode="&#xda;" horiz-adv-x="1382" d="M168 492v966h221v-956q0 -143 80 -229.5t221 -86.5q139 0 221 87t82 229v956h221v-966q0 -225 -149.5 -364.5t-374.5 -139.5q-227 0 -374.5 138t-147.5 366zM586 1600l153 332h232l-228 -332h-157z" />
<glyph unicode="&#xdb;" horiz-adv-x="1382" d="M168 492v966h221v-956q0 -143 80 -229.5t221 -86.5q139 0 221 87t82 229v956h221v-966q0 -225 -149.5 -364.5t-374.5 -139.5q-227 0 -374.5 138t-147.5 366zM340 1600l264 329h176l264 -329h-174l-178 198l-178 -198h-174z" />
<glyph unicode="&#xdc;" horiz-adv-x="1382" d="M168 492v966h221v-956q0 -143 80 -229.5t221 -86.5q139 0 221 87t82 229v956h221v-966q0 -225 -149.5 -364.5t-374.5 -139.5q-227 0 -374.5 138t-147.5 366zM377 1610v221h188v-221h-188zM819 1610v221h188v-221h-188z" />
<glyph unicode="&#xdf;" horiz-adv-x="1157" d="M166 0v1069q0 197 123 303q115 100 315 101q186 0 295 -80q125 -90 125 -271q0 -154 -127 -237q129 -66 129 -236v-338q0 -311 -317 -311h-109v178h66q150 0 149 152v319q0 147 -143 148h-72v166h64q152 0 151 153q0 172 -217 172q-221 0 -221 -231v-1057h-211z" />
<glyph unicode="&#xe0;" horiz-adv-x="1085" d="M88 305q0 147 109 227q96 72 249 72h275v74q0 195 -227 194q-147 0 -228 -100l-137 129q127 150 373 150q428 0 428 -357v-694h-205v94q-106 -106 -276 -106q-164 0 -259 75q-102 82 -102 242zM247 1559h232l153 -332h-157zM291 309q0 -147 190 -147q123 0 181.5 47 t58.5 166v84h-244q-186 0 -186 -150z" />
<glyph unicode="&#xe1;" horiz-adv-x="1085" d="M88 305q0 147 109 227q96 72 249 72h275v74q0 195 -227 194q-147 0 -228 -100l-137 129q127 150 373 150q428 0 428 -357v-694h-205v94q-106 -106 -276 -106q-164 0 -259 75q-102 82 -102 242zM291 309q0 -147 190 -147q123 0 181.5 47t58.5 166v84h-244 q-186 0 -186 -150zM420 1227l153 332h232l-228 -332h-157z" />
<glyph unicode="&#xe2;" horiz-adv-x="1085" d="M88 305q0 147 109 227q96 72 249 72h275v74q0 195 -227 194q-147 0 -228 -100l-137 129q127 150 373 150q428 0 428 -357v-694h-205v94q-106 -106 -276 -106q-164 0 -259 75q-102 82 -102 242zM174 1227l264 329h176l264 -329h-174l-178 198l-178 -198h-174zM291 309 q0 -147 190 -147q123 0 181.5 47t58.5 166v84h-244q-186 0 -186 -150z" />
<glyph unicode="&#xe3;" horiz-adv-x="1085" d="M88 305q0 147 109 227q96 72 249 72h275v74q0 195 -227 194q-147 0 -228 -100l-137 129q127 150 373 150q428 0 428 -357v-694h-205v94q-106 -106 -276 -106q-164 0 -259 75q-102 82 -102 242zM174 1374q113 113 213 113q70 0 153 -49q68 -39 113 -39q55 0 121 63l98 -96 q-113 -113 -213 -113q-55 0 -144 43t-124 43q-53 0 -119 -61zM291 309q0 -147 190 -147q123 0 181.5 47t58.5 166v84h-244q-186 0 -186 -150z" />
<glyph unicode="&#xe4;" horiz-adv-x="1085" d="M88 305q0 147 109 227q96 72 249 72h275v74q0 195 -227 194q-147 0 -228 -100l-137 129q127 150 373 150q428 0 428 -357v-694h-205v94q-106 -106 -276 -106q-164 0 -259 75q-102 82 -102 242zM211 1237v221h188v-221h-188zM291 309q0 -147 190 -147q123 0 181.5 47 t58.5 166v84h-244q-186 0 -186 -150zM653 1237v221h188v-221h-188z" />
<glyph unicode="&#xe5;" horiz-adv-x="1085" d="M88 305q0 147 109 227q96 72 249 72h275v74q0 195 -227 194q-147 0 -228 -100l-137 129q127 150 373 150q428 0 428 -357v-694h-205v94q-106 -106 -276 -106q-164 0 -259 75q-102 82 -102 242zM270 1436q0 104 76 180t180 76t180 -76t76 -180q0 -106 -75 -181t-181 -75 t-181 74.5t-75 181.5zM291 309q0 -147 190 -147q123 0 181.5 47t58.5 166v84h-244q-186 0 -186 -150zM395 1436q0 -55 38 -92t93 -37q53 0 92 38t39 91t-39 91t-92 38t-92 -38t-39 -91z" />
<glyph unicode="&#xe6;" horiz-adv-x="1714" d="M88 305q0 147 109 227q96 72 249 72h275v74q0 195 -227 194q-147 0 -228 -100l-137 129q127 150 373 150q254 0 352 -138q113 137 307 138q211 0 330 -148q111 -135 111 -352v-92h-674q0 -131 67.5 -211t196.5 -80q145 0 252 106l133 -124q-162 -162 -389 -162 q-244 0 -367 162q-129 -162 -372 -162q-164 0 -259 75q-102 82 -102 242zM291 309q0 -147 190 -147q123 0 181.5 47t58.5 166v84h-244q-186 0 -186 -150zM928 604h467q0 119 -56 191q-61 82 -178 82q-147 0 -205 -132q-29 -66 -28 -141z" />
<glyph unicode="&#xe7;" horiz-adv-x="993" d="M113 520q0 238 112 377q121 154 350 154q203 0 343 -146l-144 -139q-90 98 -199 98q-254 0 -253 -344q0 -346 253 -346q106 0 199 98l144 -137q-105 -110 -238 -137v-223h-207l-2 221q-256 49 -332 313q-27 92 -26 211z" />
<glyph unicode="&#xe8;" horiz-adv-x="1103" d="M113 520q0 229 102 371q115 160 338 160q211 0 330 -148q111 -135 110 -352v-92h-674q0 -131 68 -211t197 -80q145 0 252 106l133 -124q-162 -162 -389 -162q-467 0 -467 532zM280 1559h232l153 -332h-157zM319 604h467q0 78 -28 141q-59 131 -205 132q-115 0 -178 -80 q-55 -74 -56 -193z" />
<glyph unicode="&#xe9;" horiz-adv-x="1103" d="M113 520q0 229 102 371q115 160 338 160q211 0 330 -148q111 -135 110 -352v-92h-674q0 -131 68 -211t197 -80q145 0 252 106l133 -124q-162 -162 -389 -162q-467 0 -467 532zM319 604h467q0 78 -28 141q-59 131 -205 132q-115 0 -178 -80q-55 -74 -56 -193zM453 1227 l153 332h232l-228 -332h-157z" />
<glyph unicode="&#xea;" horiz-adv-x="1103" d="M113 520q0 229 102 371q115 160 338 160q211 0 330 -148q111 -135 110 -352v-92h-674q0 -131 68 -211t197 -80q145 0 252 106l133 -124q-162 -162 -389 -162q-467 0 -467 532zM207 1227l264 329h176l264 -329h-174l-178 198l-178 -198h-174zM319 604h467q0 78 -28 141 q-59 131 -205 132q-115 0 -178 -80q-55 -74 -56 -193z" />
<glyph unicode="&#xeb;" horiz-adv-x="1103" d="M113 520q0 229 102 371q115 160 338 160q211 0 330 -148q111 -135 110 -352v-92h-674q0 -131 68 -211t197 -80q145 0 252 106l133 -124q-162 -162 -389 -162q-467 0 -467 532zM244 1237v221h188v-221h-188zM319 604h467q0 78 -28 141q-59 131 -205 132q-115 0 -178 -80 q-55 -74 -56 -193zM686 1237v221h188v-221h-188z" />
<glyph unicode="&#xec;" horiz-adv-x="540" d="M32 1559h232l153 -332h-157zM166 0v1038h209v-1038h-209z" />
<glyph unicode="&#xed;" horiz-adv-x="540" d="M138 1227l153 332h232l-228 -332h-157zM166 0v1038h209v-1038h-209z" />
<glyph unicode="&#xee;" horiz-adv-x="540" d="M-84 1227l264 329h176l264 -329h-174l-178 198l-178 -198h-174zM166 0v1038h209v-1038h-209z" />
<glyph unicode="&#xef;" horiz-adv-x="540" d="M-47 1237v221h188v-221h-188zM166 0v1038h209v-1038h-209zM395 1237v221h188v-221h-188z" />
<glyph unicode="&#xf1;" horiz-adv-x="1163" d="M166 0v1038h205v-104q109 117 276 117q174 0 271 -109q90 -102 90 -278v-664h-209v633q0 231 -209 231q-104 0 -159.5 -63.5t-55.5 -167.5v-633h-209zM236 1374q113 113 213 113q70 0 153 -49q68 -39 113 -39q55 0 121 63l98 -96q-113 -113 -213 -113q-55 0 -144 43 t-124 43q-53 0 -119 -61z" />
<glyph unicode="&#xf2;" horiz-adv-x="1099" d="M117 520q0 530 432 531q227 0 338 -158q96 -137 96 -373q0 -532 -434 -532q-432 0 -432 532zM256 1559h232l153 -332h-157zM326 520q0 -346 223 -346q225 0 225 346q0 344 -225 344q-223 0 -223 -344z" />
<glyph unicode="&#xf3;" horiz-adv-x="1099" d="M117 520q0 530 432 531q227 0 338 -158q96 -137 96 -373q0 -532 -434 -532q-432 0 -432 532zM326 520q0 -346 223 -346q225 0 225 346q0 344 -225 344q-223 0 -223 -344zM443 1227l153 332h232l-228 -332h-157z" />
<glyph unicode="&#xf4;" horiz-adv-x="1099" d="M117 520q0 530 432 531q227 0 338 -158q96 -137 96 -373q0 -532 -434 -532q-432 0 -432 532zM197 1227l264 329h176l264 -329h-174l-178 198l-178 -198h-174zM326 520q0 -346 223 -346q225 0 225 346q0 344 -225 344q-223 0 -223 -344z" />
<glyph unicode="&#xf5;" horiz-adv-x="1099" d="M117 520q0 530 432 531q227 0 338 -158q96 -137 96 -373q0 -532 -434 -532q-432 0 -432 532zM197 1374q113 113 213 113q70 0 153 -49q68 -39 113 -39q55 0 121 63l98 -96q-113 -113 -213 -113q-55 0 -144 43t-124 43q-53 0 -119 -61zM326 520q0 -346 223 -346 q225 0 225 346q0 344 -225 344q-223 0 -223 -344z" />
<glyph unicode="&#xf6;" horiz-adv-x="1099" d="M117 520q0 530 432 531q227 0 338 -158q96 -137 96 -373q0 -532 -434 -532q-432 0 -432 532zM234 1237v221h188v-221h-188zM326 520q0 -346 223 -346q225 0 225 346q0 344 -225 344q-223 0 -223 -344zM676 1237v221h188v-221h-188z" />
<glyph unicode="&#xf7;" d="M98 471v195h893v-195h-893zM434 68v223h223v-223h-223zM434 848v223h223v-223h-223z" />
<glyph unicode="&#xf8;" horiz-adv-x="1099" d="M117 520q0 530 432 531q119 0 215 -52l76 129h141l-121 -200q123 -127 123 -408q0 -532 -434 -532q-117 0 -213 51l-76 -129h-141l119 203q-121 125 -121 407zM326 520q0 -150 30 -223l316 532q-53 35 -123 35q-223 0 -223 -344zM428 211q53 -37 121 -37q225 0 225 346 q0 150 -31 223z" />
<glyph unicode="&#xf9;" horiz-adv-x="1163" d="M156 375v663h209v-632q0 -104 53 -168t155 -64q104 0 159.5 62.5t55.5 169.5v632h209v-1038h-204v104q-104 -117 -277 -116q-172 0 -266 106.5t-94 280.5zM296 1559h232l153 -332h-157z" />
<glyph unicode="&#xfa;" horiz-adv-x="1163" d="M156 375v663h209v-632q0 -104 53 -168t155 -64q104 0 159.5 62.5t55.5 169.5v632h209v-1038h-204v104q-104 -117 -277 -116q-172 0 -266 106.5t-94 280.5zM469 1227l153 332h232l-228 -332h-157z" />
<glyph unicode="&#xfb;" horiz-adv-x="1163" d="M156 375v663h209v-632q0 -104 53 -168t155 -64q104 0 159.5 62.5t55.5 169.5v632h209v-1038h-204v104q-104 -117 -277 -116q-172 0 -266 106.5t-94 280.5zM223 1227l264 329h176l264 -329h-174l-178 198l-178 -198h-174z" />
<glyph unicode="&#xfc;" horiz-adv-x="1163" d="M156 375v663h209v-632q0 -104 53 -168t155 -64q104 0 159.5 62.5t55.5 169.5v632h209v-1038h-204v104q-104 -117 -277 -116q-172 0 -266 106.5t-94 280.5zM260 1237v221h188v-221h-188zM702 1237v221h188v-221h-188z" />
<glyph unicode="&#xff;" horiz-adv-x="958" d="M16 1038h222l247 -731l242 731h223l-458 -1245q-76 -205 -289 -205h-84v189h53q111 0 150 110l57 162zM166 1237v221h188v-221h-188zM608 1237v221h188v-221h-188z" />
<glyph unicode="&#x152;" horiz-adv-x="2000" d="M137 729q0 233 13 313q27 174 129 277q152 152 378 151q195 0 308 -131v119h921v-196h-700v-431h596v-192h-596v-442h702v-197h-923v119q-113 -131 -308 -131q-227 0 -378 151q-96 96 -123 242q-18 100 -19 348zM360 729q0 -199 5 -237q33 -305 297 -306q266 0 296 306 q7 61 7 237v129q0 74 -7 109q-27 305 -296 305q-260 0 -295 -305q-6 -53 -7 -238z" />
<glyph unicode="&#x153;" horiz-adv-x="1765" d="M117 520q0 530 432 531q225 0 336 -166q109 166 327 166q211 0 330 -148q111 -135 111 -352v-92h-674q0 -131 67.5 -211t196.5 -80q145 0 252 106l133 -124q-162 -162 -387 -162q-240 0 -358 164q-104 -164 -334 -164q-432 0 -432 532zM326 520q0 -346 223 -346 q225 0 225 346q0 344 -225 344q-223 0 -223 -344zM979 604h467q0 119 -55 191q-61 82 -179 82q-147 0 -204 -132q-29 -66 -29 -141z" />
<glyph unicode="&#x178;" horiz-adv-x="1114" d="M10 1458h242l305 -641l305 641h242l-436 -858v-600h-222v600zM242 1610v221h188v-221h-188zM684 1610v221h188v-221h-188z" />
<glyph unicode="&#x2c6;" horiz-adv-x="1024" d="M160 1227l264 329h176l264 -329h-174l-178 198l-178 -198h-174z" />
<glyph unicode="&#x2dc;" horiz-adv-x="1024" d="M160 1374q113 113 213 113q70 0 153 -49q68 -39 113 -39q55 0 121 63l98 -96q-113 -113 -213 -113q-55 0 -144 43t-124 43q-53 0 -119 -61z" />
<glyph unicode="&#x2000;" horiz-adv-x="1024" />
<glyph unicode="&#x2001;" horiz-adv-x="2048" />
<glyph unicode="&#x2002;" horiz-adv-x="1024" />
<glyph unicode="&#x2003;" horiz-adv-x="2048" />
<glyph unicode="&#x2004;" horiz-adv-x="682" />
<glyph unicode="&#x2005;" horiz-adv-x="512" />
<glyph unicode="&#x2006;" horiz-adv-x="341" />
<glyph unicode="&#x2007;" horiz-adv-x="341" />
<glyph unicode="&#x2008;" horiz-adv-x="256" />
<glyph unicode="&#x2009;" horiz-adv-x="409" />
<glyph unicode="&#x200a;" horiz-adv-x="113" />
<glyph unicode="&#x2010;" horiz-adv-x="872" d="M137 471v195h598v-195h-598z" />
<glyph unicode="&#x2011;" horiz-adv-x="872" d="M137 471v195h598v-195h-598z" />
<glyph unicode="&#x2012;" horiz-adv-x="872" d="M137 471v195h598v-195h-598z" />
<glyph unicode="&#x2013;" d="M104 471v195h883v-195h-883z" />
<glyph unicode="&#x2014;" horiz-adv-x="1990" d="M137 473v199h1716v-199h-1716z" />
<glyph unicode="&#x2018;" horiz-adv-x="548" d="M160 1245v213l229 191v-404h-229z" />
<glyph unicode="&#x2019;" horiz-adv-x="548" d="M160 1057v401h229v-215z" />
<glyph unicode="&#x201a;" horiz-adv-x="546" d="M160 -188v403h229v-215z" />
<glyph unicode="&#x201c;" horiz-adv-x="940" d="M160 1245v213l229 191v-404h-229zM551 1245v213l229 191v-404h-229z" />
<glyph unicode="&#x201d;" horiz-adv-x="940" d="M160 1057v401h229v-215zM551 1057v401h229v-215z" />
<glyph unicode="&#x201e;" horiz-adv-x="942" d="M160 -188v403h229v-215zM551 -188v403h229v-215z" />
<glyph unicode="&#x2022;" horiz-adv-x="1048" d="M190 684q0 137 98.5 235.5t235.5 98.5q139 0 236.5 -97.5t97.5 -236.5q0 -137 -98 -235.5t-236 -98.5q-135 0 -234.5 99.5t-99.5 234.5z" />
<glyph unicode="&#x2026;" horiz-adv-x="1644" d="M160 0v240h239v-240h-239zM702 0v240h240v-240h-240zM1245 0v240h240v-240h-240z" />
<glyph unicode="&#x202f;" horiz-adv-x="409" />
<glyph unicode="&#x205f;" horiz-adv-x="512" />
<glyph unicode="&#x2122;" horiz-adv-x="1808" d="M84 1317v141h625v-141h-236v-733h-156v733h-233zM854 584v874h158l256 -497l258 497h157v-874h-157v571l-185 -367h-145l-184 367v-571h-158z" />
<glyph unicode="&#x25fc;" horiz-adv-x="1034" d="M0 0v1034h1034v-1034h-1034z" />
</font>
</defs>
</svg>
