<?xml version="1.0" standalone="no"?>
<!DOCTYPE svg PUBLIC "-//W3C//DTD SVG 1.1//EN" "http://www.w3.org/Graphics/SVG/1.1/DTD/svg11.dtd" >
<svg xmlns="http://www.w3.org/2000/svg">
<metadata></metadata>
<defs>
<font id="dinbekregular" horiz-adv-x="1052" >
<font-face units-per-em="2048" ascent="1565" descent="-483" />
<missing-glyph horiz-adv-x="522" />
<glyph horiz-adv-x="0" />
<glyph horiz-adv-x="682" />
<glyph horiz-adv-x="1411" d="M82 692v86h166v680h491q141 0 250 -59.5t176 -175.5q25 -43 40.5 -79t23.5 -86t11 -127t3 -202q0 -133 -4 -215t-13 -132t-23.5 -83t-37.5 -68q-61 -98 -170.5 -164.5t-269.5 -66.5h-477v692h-166zM358 96h353q117 0 206 40t146 126q25 37 39 73t21 85t8.5 119.5 t1.5 179.5q0 104 -2.5 178t-9.5 127t-23.5 94t-46.5 82q-66 90 -148 126t-192 36h-353v-584h365v-86h-365v-596z" />
<glyph horiz-adv-x="1077" d="M141 494q0 106 22.5 212.5t100.5 184.5q109 109 275 108q39 0 81 -8t72 -26l-137 231h-240v78h195l-109 184h109l106 -184h162v-78h-116l147 -252q41 -72 66.5 -127t39 -105t17.5 -101t4 -117q0 -106 -22.5 -213t-100.5 -185q-53 -53 -121.5 -80.5t-152.5 -27.5 q-166 0 -275 108q-78 78 -100.5 184.5t-22.5 213.5zM246 494q0 -43 2 -88.5t11 -89.5t26.5 -82.5t48.5 -69.5q84 -84 205 -84q59 0 111 21.5t93 62.5q31 31 48.5 69.5t26.5 82.5t11 89.5t2 88.5t-2 88t-11 89t-26.5 83t-48.5 69q-41 41 -93 62.5t-111 21.5q-121 0 -205 -84 q-31 -31 -48.5 -69.5t-26.5 -82.5t-11 -89t-2 -88z" />
<glyph horiz-adv-x="1183" d="M82 528v99l156 98v733h110v-663l336 213v-99l-336 -213v-598h774v-98h-884v627z" />
<glyph horiz-adv-x="630" d="M82 645v92l135 84v637h105v-571l180 112v-92l-180 -112v-537q0 -84 31.5 -125t119.5 -41h72v-92h-90q-121 0 -179.5 69.5t-58.5 186.5v473z" />
<glyph horiz-adv-x="1202" d="M104 180l78 78q49 -49 95.5 -82t95.5 -53.5t103 -28.5t120 -8q174 0 274.5 79t100.5 222q0 66 -19.5 118t-60.5 87q-20 16 -38.5 28.5t-42.5 20.5t-54.5 15.5t-75.5 13.5l-170 26q-166 25 -260 107q-115 96 -115 268q0 184 121 291.5t332 107.5q135 0 230 -37.5 t190 -119.5l-72 -72q-33 31 -69 55.5t-76.5 42t-92 27.5t-116.5 10q-160 0 -249 -81t-89 -220q0 -127 75 -190q39 -33 97.5 -56.5t120.5 -33.5l157 -25q102 -14 158.5 -35.5t101.5 -60.5q59 -49 93 -122t34 -161q0 -186 -131 -294.5t-360 -108.5q-82 0 -148.5 11t-125 34.5 t-110.5 60.5t-102 86zM281 1898h117l190 -223l190 223h117l-252 -301h-110z" />
<glyph horiz-adv-x="1011" d="M102 129l72 72q115 -121 324 -121q145 0 221 50t76 151q0 78 -45 116.5t-144 48.5l-164 15q-297 25 -297 258q0 129 96.5 204.5t258.5 75.5q102 0 191 -27.5t155 -76.5l-70 -70q-115 84 -276 84q-123 0 -187.5 -49t-64.5 -141q0 -78 48 -117t153 -49l159 -14 q61 -6 114.5 -19.5t91.5 -43.5t60.5 -76.5t22.5 -118.5q0 -135 -106.5 -214t-288.5 -79q-129 0 -226.5 34.5t-173.5 106.5zM195 1509h117l190 -223l190 223h117l-252 -301h-110z" />
<glyph horiz-adv-x="1011" d="M20 1458h119l371 -737l362 737h119l-430 -854v-604h-110v604zM412 1597l198 301h138l-217 -301h-119z" />
<glyph horiz-adv-x="880" d="M29 987h114l297 -864l297 864h115l-459 -1255q-29 -80 -67 -115q-37 -35 -87.5 -49t-99.5 -14h-49v92h39q84 0 119 30.5t61 104.5l80 219zM346 1208l198 301h138l-217 -301h-119z" />
<glyph horiz-adv-x="1323" d="M225 0v1458h111v-303h424q94 0 175 -27.5t139.5 -82t92 -132.5t33.5 -178t-33.5 -178t-92 -131t-139.5 -82t-175 -29h-424v-315h-111zM336 414h412q152 0 247 78.5t95 242.5t-95.5 243t-246.5 79h-412v-643z" />
<glyph horiz-adv-x="1105" d="M199 -471v1929h104v-598q66 86 137.5 112.5t155.5 26.5q78 0 140.5 -23.5t101.5 -62.5q76 -76 101.5 -189t25.5 -230t-26 -230.5t-101 -189.5q-39 -39 -101.5 -62.5t-140.5 -23.5q-84 0 -155.5 26.5t-137.5 112.5v-598h-104zM303 494q0 -76 9.5 -151t39 -133t85 -94 t145.5 -36t145 36t85 94t39 133t9 151q0 78 -9 151.5t-39 132t-85 94t-145 35.5t-145.5 -35.5t-85 -94t-39 -132.5t-9.5 -151z" />
<glyph horiz-adv-x="1144" d="M129 0v117l768 1243h-737v98h856v-98l-774 -1262h774v-98h-887zM281 1898h117l190 -223l190 223h117l-252 -301h-110z" />
<glyph horiz-adv-x="925" d="M111 0v98l594 797h-562v92h672v-98l-596 -797h596v-92h-704zM174 1509h117l190 -223l190 223h117l-252 -301h-110z" />
<glyph horiz-adv-x="1564" d="M92 1212v105l164 141h90v-874h-90v774zM313 0l680 1458h92l-679 -1458h-93zM979 0v82l344 436q47 61 47 127q0 72 -39 114t-110 42q-59 0 -105.5 -35t-46.5 -121h-90q0 104 65.5 171t176.5 67q109 0 175 -63.5t66 -174.5q0 -53 -17.5 -92t-51.5 -86l-306 -385h375v-82 h-483z" />
<glyph horiz-adv-x="1548" d="M92 1212v105l164 141h90v-874h-90v774zM344 0l680 1458h92l-680 -1458h-92zM922 137v82l315 655h96l-313 -655h250v246h90v-246h106v-82h-106v-137h-90v137h-348z" />
<glyph horiz-adv-x="509" d="M92 1212v105l164 141h90v-874h-90v774z" />
<glyph horiz-adv-x="1650" d="M102 807h93q4 -82 54 -117t113 -35q72 0 119 44t47 124q0 78 -41 122t-131 44h-16v80h16q80 0 118 42t38 116q0 78 -44 117.5t-108 39.5q-70 0 -109.5 -38.5t-45.5 -104.5h-90q8 106 76.5 165.5t168.5 59.5q109 0 175.5 -64.5t66.5 -172.5q0 -141 -117 -195 q133 -49 133 -211q0 -61 -19 -107t-54 -78t-82 -48.5t-101 -16.5q-51 0 -98 14.5t-82 43t-56.5 73t-23.5 103.5zM467 0l680 1458h92l-680 -1458h-92zM1024 137v82l315 655h97l-314 -655h250v246h90v-246h107v-82h-107v-137h-90v137h-348z" />
<glyph horiz-adv-x="720" d="M102 807h93q4 -82 54 -117t113 -35q72 0 119 44t47 124q0 78 -41 122t-131 44h-16v80h16q80 0 118 42t38 116q0 78 -44 117.5t-108 39.5q-70 0 -109.5 -38.5t-45.5 -104.5h-90q8 106 76.5 165.5t168.5 59.5q109 0 175.5 -64.5t66.5 -172.5q0 -141 -117 -195 q133 -49 133 -211q0 -61 -19 -107t-54 -78t-82 -48.5t-101 -16.5q-51 0 -98 14.5t-82 43t-56.5 73t-23.5 103.5z" />
<glyph horiz-adv-x="688" d="M102 584v82l344 436q47 61 48 127q0 72 -39 113.5t-111 41.5q-59 0 -105 -34.5t-46 -120.5h-91q0 104 65.5 170.5t176.5 66.5q109 0 175.5 -63.5t66.5 -173.5q0 -53 -16.5 -92t-53.5 -86l-305 -385h375v-82h-484z" />
<glyph horiz-adv-x="671" d="M272 -152v717h105v-717h-105zM272 893v717h105v-717h-105z" />
<glyph d="M109 492v96h835v-96h-835z" />
<glyph d="M145 223l318 318l-318 317l64 64l317 -318l318 318l63 -64l-317 -317l317 -318l-63 -63l-318 317l-317 -317z" />
<glyph unicode=" "  horiz-adv-x="522" />
<glyph unicode="&#x09;" horiz-adv-x="522" />
<glyph unicode="&#xa0;" horiz-adv-x="522" />
<glyph unicode="!" horiz-adv-x="622" d="M272 0v137h138v-137h-138zM285 1458h112l-6 -1065h-100z" />
<glyph unicode="&#x22;" horiz-adv-x="835" d="M195 1139v319h129v-319h-129zM512 1139v319h129v-319h-129z" />
<glyph unicode="#" horiz-adv-x="1308" d="M172 492v90h211l51 313h-203v92h215l74 471h107l-76 -471h358l74 471h102l-73 -471h192v-92h-205l-51 -313h197v-90h-211l-78 -492h-104l79 492h-360l-76 -492h-104l78 492h-197zM485 582h359l51 313h-358z" />
<glyph unicode="$" horiz-adv-x="1202" d="M104 180l78 78q43 -43 85 -74.5t85 -51t89 -30t102 -14.5v604l-33 4q-80 10 -149.5 41t-110.5 66q-115 98 -115 268q0 174 108.5 279.5t299.5 117.5v183h92v-183q117 -6 202 -44t171 -111l-72 -72q-59 53 -128 89t-173 44v-594l59 -8q102 -18 158.5 -38.5t101.5 -59.5 q59 -49 93 -122t34 -161q0 -176 -118.5 -283.5t-327.5 -117.5v-223h-92v221q-143 6 -243.5 52t-195.5 140zM244 1075q0 -127 75 -190q49 -41 107.5 -61.5t116.5 -28.5v579q-141 -10 -220 -90t-79 -209zM635 88q156 10 246 87t90 212q0 66 -19.5 118t-60.5 87 q-29 25 -58.5 39t-61.5 22.5t-65.5 12.5t-70.5 10v-588z" />
<glyph unicode="%" horiz-adv-x="1695" d="M141 979v219q0 123 75 199t196 76q119 0 193.5 -76t74.5 -199v-219q0 -121 -75 -196.5t-193 -75.5q-121 0 -196 75.5t-75 196.5zM231 983q0 -92 42 -145.5t139 -53.5q94 0 136 53.5t42 145.5v211q0 92 -41 146.5t-137 54.5t-138.5 -54.5t-42.5 -146.5v-211zM463 0 l680 1458h92l-680 -1458h-92zM1016 260v219q0 123 74.5 199t195.5 76q119 0 193.5 -76t74.5 -199v-219q0 -123 -74.5 -198.5t-193.5 -75.5q-121 0 -195.5 75.5t-74.5 198.5zM1106 264q0 -92 42 -146.5t138 -54.5t137 54.5t41 146.5v211q0 92 -41 146.5t-137 54.5t-138 -54.5 t-42 -146.5v-211z" />
<glyph unicode="&#x26;" horiz-adv-x="1527" d="M172 403q0 86 27.5 152t75 118t107.5 96t124 87q-29 35 -57.5 72t-52 76.5t-38 84t-14.5 91.5q0 61 23.5 114.5t63.5 92t94.5 61t115.5 22.5t115.5 -22.5t94.5 -62t63.5 -93t23.5 -114.5q0 -90 -49 -152.5t-119 -110.5q-20 -14 -41 -28q-16 -12 -34.5 -23.5t-32.5 -21.5 l417 -506q25 37 41.5 71.5t26.5 76.5t14 93.5t4 120.5h109q0 -137 -28.5 -247.5t-98.5 -196.5l209 -254h-142l-141 172q-20 -20 -59 -52t-95.5 -60.5t-130 -50t-163.5 -21.5q-100 0 -183.5 29.5t-143.5 85t-93 132t-33 168.5zM283 410q0 -72 24.5 -131.5t69.5 -102.5 t107.5 -66.5t138.5 -23.5q88 0 183 32t206 130l-443 534q-51 -35 -102 -71.5t-92 -79.5t-66.5 -96.5t-25.5 -124.5zM455 1184q0 -27 6 -53.5t22.5 -57.5t44 -68.5t70.5 -89.5q10 8 23.5 16.5t27.5 18.5q16 10 33 23q57 39 102 86t45 119q0 84 -54 139t-134 55t-133 -53 t-53 -135z" />
<glyph unicode="'" horiz-adv-x="518" d="M195 1139v319h129v-319h-129z" />
<glyph unicode="(" horiz-adv-x="581" d="M199 162v1134q0 49 7 96.5t32 94.5t56.5 82t78.5 82l71 -72q-35 -35 -63.5 -64.5t-46.5 -68.5q-31 -63 -31 -162v-1110q0 -96 31 -162q18 -39 47 -68.5t63 -64.5l-71 -72q-47 47 -79 82t-56 82q-25 47 -32 94.5t-7 96.5z" />
<glyph unicode=")" horiz-adv-x="581" d="M133 -117q35 35 63.5 64.5t47.5 68.5q16 33 22 72t6 86v1110q0 47 -6 86t-22 72q-18 39 -47 68.5t-64 64.5l76 76q47 -47 78.5 -82t56.5 -82q27 -47 33 -94t6 -97v-1134q0 -49 -6 -96.5t-33 -94.5q-25 -47 -56.5 -81.5t-78.5 -82.5z" />
<glyph unicode="*" horiz-adv-x="956" d="M147 975l252 139l-252 139l46 78l245 -149l-6 288h92l-6 -288l246 149l45 -78l-252 -139l252 -139l-45 -78l-246 150l6 -289h-92l6 289l-245 -150z" />
<glyph unicode="+" d="M109 492v96h370v368h96v-368h369v-96h-369v-371h-96v371h-370z" />
<glyph unicode="," horiz-adv-x="528" d="M195 139h139v-278l-139 -140v418z" />
<glyph unicode="-" horiz-adv-x="872" d="M168 492v96h537v-96h-537z" />
<glyph unicode="." horiz-adv-x="540" d="M195 0v152h151v-152h-151z" />
<glyph unicode="/" horiz-adv-x="692" d="M0 -152l584 1762h108l-583 -1762h-109z" />
<glyph unicode="0" d="M143 377v704q0 86 29 157t79 123t120.5 80.5t154.5 28.5t155 -28.5t122 -80.5t78.5 -123t27.5 -157v-704q0 -86 -27.5 -156.5t-78.5 -123t-122 -81t-155 -28.5t-154.5 28.5t-120.5 81t-79 123t-29 156.5zM248 387q0 -63 17.5 -119.5t53 -98.5t88 -65.5t119.5 -23.5 q68 0 120 23.5t88 65.5t53.5 98.5t17.5 119.5v684q0 66 -17.5 121t-53.5 97t-88 65.5t-120 23.5t-120 -23.5t-87.5 -65.5t-53 -97t-17.5 -121v-684z" />
<glyph unicode="1" d="M272 1106v125l265 227h104v-1458h-104v1339z" />
<glyph unicode="2" d="M147 0v92l586 768q43 55 62.5 109.5t19.5 117.5q0 131 -73.5 211t-206.5 80q-57 0 -107.5 -16t-89.5 -52t-61.5 -90.5t-22.5 -132.5h-104q0 82 26.5 152t75.5 121t120.5 80.5t162.5 29.5q88 0 158.5 -27.5t120.5 -77.5t78 -120.5t28 -157.5q0 -82 -23 -145t-78 -135 l-547 -715h648v-92h-773z" />
<glyph unicode="3" d="M86 354h104q6 -74 34 -127t71 -85.5t96 -48t111 -15.5q66 0 122 21.5t98 61.5t65.5 97t23.5 131q0 147 -74.5 229t-242.5 82h-25v93h25q147 0 217.5 75.5t70.5 216.5q0 72 -21.5 127.5t-60 92t-90 56t-110.5 19.5q-129 0 -203 -71.5t-88 -194.5h-105q16 172 126 265.5 t270 93.5q86 0 157.5 -28t121.5 -78t79 -121.5t29 -160.5q0 -117 -48 -200.5t-159 -130.5q123 -41 179 -133.5t56 -231.5q0 -98 -31.5 -173t-87 -126t-131 -77.5t-163.5 -26.5q-86 0 -159 22.5t-128 67.5t-89 114.5t-40 163.5z" />
<glyph unicode="4" d="M88 240v92l537 1126h110l-536 -1126h467v463h104v-463h195v-92h-195v-240h-104v240h-578z" />
<glyph unicode="5" d="M152 322h104q16 -117 80.5 -180.5t193.5 -63.5q59 0 112.5 19.5t88.5 54.5q33 33 50.5 71.5t25.5 81.5t10 87t2 85q0 68 -9 137.5t-38 126t-82 91t-143 34.5q-100 0 -171 -40t-93 -113h-93v745h701v-92h-608v-516q94 109 276 108q158 0 246 -88q39 -39 62.5 -86t35.5 -98 t16.5 -104.5t4.5 -104.5t-3 -104.5t-14.5 -102.5t-34 -95t-61.5 -85q-104 -104 -281 -104q-90 0 -161.5 24.5t-118.5 73.5q-86 86 -98 238z" />
<glyph unicode="6" d="M145 397q0 72 18.5 142.5t63.5 162.5l375 756h105l-336 -674q74 35 170 35q90 0 159.5 -31.5t117.5 -87t74 -129t26 -159.5q0 -88 -26 -165t-75 -134.5t-120.5 -91t-164.5 -33.5q-92 0 -163.5 30.5t-121.5 85t-76 130t-26 163.5zM250 403q0 -147 75.5 -235t204.5 -88 t206 88t77 235q0 66 -18.5 124.5t-53 103.5t-88 70.5t-123.5 25.5q-129 0 -204.5 -88t-75.5 -236z" />
<glyph unicode="7" d="M176 1137v321h764v-92l-516 -1366h-107l517 1366h-553v-229h-105z" />
<glyph unicode="8" d="M111 393q0 127 63.5 218t167.5 147q-98 53 -149.5 136t-51.5 196q0 80 29 149.5t79 120.5t120.5 80.5t156.5 29.5t157 -29.5t121 -80.5t78.5 -121t28.5 -149q0 -225 -198 -332q104 -55 166.5 -146.5t62.5 -218.5q0 -88 -31.5 -161.5t-88 -128t-132.5 -85t-164 -30.5 t-163.5 30.5t-132 85t-88 128t-31.5 161.5zM215 393q0 -68 23.5 -125t65.5 -99t99.5 -65.5t122.5 -23.5q66 0 123.5 23.5t99.5 65.5t65.5 99t23.5 125t-23.5 125t-65.5 99t-99.5 67t-123.5 25t-123 -25t-99 -67t-65.5 -99t-23.5 -125zM246 1090q0 -63 20.5 -116.5t57 -91.5 t89 -59.5t113.5 -21.5t113.5 21.5t89.5 59.5t57.5 91.5t20.5 116.5t-20.5 116.5t-57.5 91t-89 59t-114 21.5q-61 0 -113.5 -21.5t-89 -59t-57 -91t-20.5 -116.5z" />
<glyph unicode="9" d="M135 1047q0 88 25.5 164.5t75 134t121 91t163.5 33.5t164 -30.5t122 -85t75.5 -129t25.5 -164.5q0 -72 -18.5 -142.5t-63.5 -162.5l-374 -756h-105l336 674q-74 -35 -172 -35q-90 0 -159.5 31.5t-118 87t-73 129.5t-24.5 160zM240 1055q0 -66 17 -124.5t53 -103.5 t88.5 -70.5t121.5 -25.5q129 0 206 88.5t77 235.5t-77 235t-206 88t-204.5 -88t-75.5 -235z" />
<glyph unicode=":" horiz-adv-x="598" d="M252 0v152h151v-152h-151zM252 639v152h151v-152h-151z" />
<glyph unicode=";" horiz-adv-x="598" d="M252 639v152h151v-152h-151zM256 139h139v-278l-139 -140v418z" />
<glyph unicode="&#x3c;" horiz-adv-x="2103" d="M117 539l827 827h141l-776 -776h1678v-103h-1678l776 -776h-141z" />
<glyph unicode="=" d="M109 334v96h835v-96h-835zM109 647v96h835v-96h-835z" />
<glyph unicode="&#x3e;" horiz-adv-x="2103" d="M117 487v103h1677l-776 776h141l828 -827l-828 -828h-141l776 776h-1677z" />
<glyph unicode="?" horiz-adv-x="999" d="M164 1110q0 74 26.5 139.5t74.5 114.5t116 77.5t149 28.5q78 0 145.5 -27.5t117 -75.5t77 -113.5t27.5 -143.5q0 -72 -24.5 -128t-65.5 -116l-174 -256q-20 -29 -28.5 -63.5t-8.5 -59.5v-96h-104v92q0 59 14 99.5t45 85.5l172 254q31 47 50.5 88t19.5 100 q0 57 -19.5 106.5t-55.5 85t-84 56t-104 20.5q-59 0 -108 -21.5t-83 -58t-52.5 -86t-18.5 -102.5h-104zM475 0v137h137v-137h-137z" />
<glyph unicode="@" horiz-adv-x="1427" d="M158 322v716q0 98 29.5 176t82.5 134q106 111 289 110h307q90 0 163 -28.5t126 -81.5q115 -115 115 -310v-1038h-105v121q-51 -70 -118.5 -102.5t-165.5 -32.5q-182 0 -285 133q-25 33 -41 68.5t-26.5 80.5t-15.5 100.5t-5 125.5q0 135 18.5 222t61.5 148 q45 66 121.5 101.5t169.5 35.5q94 0 163.5 -33.5t122.5 -105.5v182q0 88 -18.5 142.5t-65.5 101.5q-45 45 -100 65.5t-133 20.5h-270q-78 0 -132.5 -20.5t-99.5 -65.5q-47 -47 -65.5 -100t-18.5 -144v-722q0 -51 5 -89t19.5 -68t39 -54.5t63.5 -53.5l-72 -71 q-47 33 -77.5 64.5t-49 69.5t-25.5 86t-7 116zM612 494q0 -76 8.5 -150t38 -133t84 -96t146.5 -37t146.5 37t84 96t37.5 133t8 150t-8 149.5t-37.5 133t-84 96t-146.5 36.5t-146.5 -36.5t-84 -96t-38 -133.5t-8.5 -149z" />
<glyph unicode="A" horiz-adv-x="1232" d="M31 0l536 1458h99l536 -1458h-119l-127 354h-680l-126 -354h-119zM311 453h611l-306 858z" />
<glyph unicode="B" horiz-adv-x="1374" d="M225 0v1458h537q90 0 168 -25.5t134 -74.5t88 -120t32 -161q0 -115 -60.5 -204t-167.5 -123q119 -41 184.5 -133.5t65.5 -219.5q0 -98 -30.5 -171.5t-87 -124t-135.5 -76t-175 -25.5h-553zM336 98h430q150 0 240 79t90 220t-90.5 220t-239.5 79h-430v-598zM336 795h414 q66 0 125 16t103 50t69.5 87t25.5 129t-25.5 129.5t-69.5 87t-103.5 50t-124.5 16.5h-414v-565z" />
<glyph unicode="C" horiz-adv-x="1318" d="M168 729q0 123 2 213t15.5 157.5t41 120t76.5 101.5q72 72 166 110.5t199 38.5q98 0 181 -29.5t146.5 -85t106.5 -134t61 -177.5h-112q-33 152 -134.5 240t-248.5 88q-78 0 -150 -28.5t-127 -83.5q-39 -39 -61.5 -83t-33.5 -104.5t-14 -143.5t-3 -200t3 -200t14 -143 t33.5 -104t61.5 -83q55 -55 127 -84t150 -29q147 0 250.5 88t136.5 240h108q-18 -98 -61 -177t-107.5 -134.5t-147.5 -85t-179 -29.5q-104 0 -198.5 39t-166.5 110q-49 49 -76.5 102.5t-41 121t-15.5 156.5t-2 212z" />
<glyph unicode="D" horiz-adv-x="1388" d="M225 0v1458h490q231 0 364 -133q55 -55 84 -125t42.5 -144.5t14.5 -153t1 -152.5t-1 -159t-14.5 -168t-42 -159t-84.5 -131q-66 -66 -158 -99.5t-206 -33.5h-490zM336 98h352q88 0 169 23.5t144 89.5q43 45 66 111.5t32 141.5t10 150t1 136t-1 129.5t-10 135t-32 127 t-66 105.5q-63 66 -144 89.5t-169 23.5h-352v-1262z" />
<glyph unicode="E" horiz-adv-x="1224" d="M225 0v1458h885v-98h-774v-576h659v-98h-659v-588h774v-98h-885z" />
<glyph unicode="F" horiz-adv-x="1179" d="M225 0v1458h885v-98h-774v-600h659v-98h-659v-662h-111z" />
<glyph unicode="G" horiz-adv-x="1333" d="M168 729q0 123 2 213t15.5 157.5t41 120t76.5 101.5q72 72 166 110.5t199 38.5q96 0 179 -30.5t148.5 -86t109.5 -134t60 -175.5h-110q-33 152 -136.5 240t-250.5 88q-78 0 -150 -28.5t-127 -83.5q-39 -39 -61.5 -83t-33.5 -104.5t-14 -143.5t-3 -200t3 -200t14 -143 t33.5 -104t61.5 -83q55 -55 127 -84t150 -29q86 0 165.5 36t137.5 105q47 59 67.5 127t20.5 162v131h-391v98h501v-237q0 -115 -26.5 -199t-91.5 -153q-72 -80 -172.5 -124t-210.5 -44q-104 0 -198.5 39t-166.5 110q-49 49 -76.5 102.5t-41 121t-15.5 156.5t-2 212z" />
<glyph unicode="H" horiz-adv-x="1431" d="M225 0v1458h111v-674h760v674h110v-1458h-110v686h-760v-686h-111z" />
<glyph unicode="I" horiz-adv-x="561" d="M225 0v1458h111v-1458h-111z" />
<glyph unicode="J" horiz-adv-x="1019" d="M61 113l76 75q41 -41 94.5 -71.5t149.5 -30.5q158 0 241 95t83 272v1005h110v-1028q0 -100 -30.5 -181t-87 -139.5t-137.5 -90t-179 -31.5q-195 0 -320 125z" />
<glyph unicode="K" horiz-adv-x="1320" d="M225 0v1458h111v-911l739 911h133l-450 -557l526 -901h-131l-469 817l-348 -422v-395h-111z" />
<glyph unicode="L" horiz-adv-x="1171" d="M225 0v1458h111v-1360h774v-98h-885z" />
<glyph unicode="M" horiz-adv-x="1675" d="M225 0v1458h111l508 -1124l495 1124h111v-1458h-111v1202l-442 -997h-111l-450 997v-1202h-111z" />
<glyph unicode="N" horiz-adv-x="1513" d="M225 0v1458h111l842 -1263v1263h110v-1458h-110l-842 1268v-1268h-111z" />
<glyph unicode="O" horiz-adv-x="1335" d="M168 729q0 123 2 213t15.5 157.5t41 120t76.5 101.5q72 72 166 110.5t199 38.5q104 0 198.5 -38.5t165.5 -110.5q49 -49 77 -101.5t41 -120t15 -157.5t2 -213t-2 -212t-15 -156.5t-41 -121t-77 -102.5q-72 -72 -166 -110.5t-198 -38.5t-198.5 39t-166.5 110 q-49 49 -76.5 102.5t-41 121t-15.5 156.5t-2 212zM279 729q0 -117 3 -200t14 -143t33.5 -104t61.5 -83q55 -55 127 -84t150 -29t149.5 28.5t126.5 84.5q39 39 61.5 83t34 104t14.5 143t3 200t-3 200t-14.5 143.5t-34 104.5t-61.5 83q-55 55 -127 83.5t-149 28.5 q-78 0 -150 -28.5t-127 -83.5q-39 -39 -61.5 -83t-33.5 -104.5t-14 -143.5t-3 -200z" />
<glyph unicode="P" horiz-adv-x="1292" d="M225 0v1458h535q94 0 175 -27.5t139.5 -82t92 -132.5t33.5 -178t-33.5 -178t-92 -131t-139.5 -82t-175 -29h-424v-618h-111zM336 717h412q152 0 247 78.5t95 242.5t-95.5 243t-246.5 79h-412v-643z" />
<glyph unicode="Q" horiz-adv-x="1333" d="M168 729q0 123 2 213t15.5 157.5t41 120t76.5 101.5q72 72 166 110.5t199 38.5q104 0 198.5 -38.5t165.5 -110.5q49 -49 77 -101.5t41 -120t15 -157.5t2 -213q0 -113 -2 -196.5t-12 -149.5t-30.5 -116t-59.5 -95l172 -172l-74 -74l-172 172q-68 -53 -150.5 -81.5 t-170.5 -28.5q-104 0 -198.5 39t-166.5 110q-49 49 -76.5 102.5t-41 121t-15.5 156.5t-2 212zM279 729q0 -117 3 -200t14 -143t33.5 -104t61.5 -83q55 -55 127 -84t150 -29q139 0 247 86l-204 205l73 74l203 -203q25 35 38 78t20.5 99t9.5 131t2 173q0 117 -3 200 t-14.5 143.5t-34 104.5t-61.5 83q-55 55 -127 83.5t-149 28.5q-78 0 -150 -28.5t-127 -83.5q-39 -39 -61.5 -83t-33.5 -104.5t-14 -143.5t-3 -200z" />
<glyph unicode="R" horiz-adv-x="1345" d="M225 0v1458h555q90 0 166 -25.5t132.5 -74.5t88 -122t31.5 -169q0 -164 -91 -265.5t-245 -127.5l352 -674h-129l-348 672h-401v-672h-111zM336 770h430q70 0 129 17.5t102 54.5t66.5 92t23.5 131t-23.5 131t-66.5 92t-102 54.5t-129 17.5h-430v-590z" />
<glyph unicode="S" horiz-adv-x="1202" d="M104 180l78 78q49 -49 95.5 -82t95.5 -53.5t103 -28.5t120 -8q174 0 274.5 79t100.5 222q0 66 -19.5 118t-60.5 87q-20 16 -38.5 28.5t-42.5 20.5t-54.5 15.5t-75.5 13.5l-170 26q-166 25 -260 107q-115 96 -115 268q0 184 121 291.5t332 107.5q135 0 230 -37.5 t190 -119.5l-72 -72q-33 31 -69 55.5t-76.5 42t-92 27.5t-116.5 10q-160 0 -249 -81t-89 -220q0 -127 75 -190q39 -33 97.5 -56.5t120.5 -33.5l157 -25q102 -14 158.5 -35.5t101.5 -60.5q59 -49 93 -122t34 -161q0 -186 -131 -294.5t-360 -108.5q-82 0 -148.5 11t-125 34.5 t-110.5 60.5t-102 86z" />
<glyph unicode="T" horiz-adv-x="1103" d="M61 1360v98h981v-98h-436v-1360h-110v1360h-435z" />
<glyph unicode="U" horiz-adv-x="1409" d="M205 473v985h110v-971q0 -90 28 -164.5t79 -127t122.5 -81t160.5 -28.5q88 0 159.5 28.5t122.5 81t79 127t28 164.5v971h110v-985q0 -106 -37 -195.5t-103.5 -154t-157.5 -100t-201 -35.5q-111 0 -202 35.5t-157.5 100t-103.5 154t-37 195.5z" />
<glyph unicode="V" horiz-adv-x="1093" d="M20 1458h117l410 -1263l409 1263h117l-479 -1458h-94z" />
<glyph unicode="W" horiz-adv-x="1724" d="M41 1458h117l307 -1268l340 1268h115l340 -1268l307 1268h116l-364 -1458h-113l-344 1270l-344 -1270h-112z" />
<glyph unicode="X" horiz-adv-x="1089" d="M37 0l446 748l-417 710h129l348 -612l350 612h127l-418 -710l451 -748h-129l-381 649l-381 -649h-125z" />
<glyph unicode="Y" horiz-adv-x="1011" d="M20 1458h119l371 -737l362 737h119l-430 -854v-604h-110v604z" />
<glyph unicode="Z" horiz-adv-x="1144" d="M129 0v117l768 1243h-737v98h856v-98l-774 -1262h774v-98h-887z" />
<glyph unicode="[" horiz-adv-x="593" d="M199 -152v1762h303v-92h-199v-1577h199v-93h-303z" />
<glyph unicode="\" horiz-adv-x="692" d="M0 1610h109l583 -1762h-108z" />
<glyph unicode="]" horiz-adv-x="593" d="M92 -66h205v1590h-205v86h303v-1762h-303v86z" />
<glyph unicode="^" d="M156 864l323 606h94l324 -606h-104l-267 496l-266 -496h-104z" />
<glyph unicode="_" d="M0 -250h1053v-78h-1053v78z" />
<glyph unicode="`" horiz-adv-x="1024" d="M272 1509h138l198 -301h-119z" />
<glyph unicode="a" horiz-adv-x="1073" d="M115 270q0 135 91 210t253 75h319v111q0 119 -63.5 180t-214.5 61q-104 0 -165 -28.5t-108 -96.5l-75 66q63 88 145 119.5t203 31.5q197 0 290 -84t93 -239v-676h-105v98q-63 -63 -129.5 -86.5t-171.5 -23.5q-111 0 -177.5 20.5t-113.5 69.5q-35 35 -53 86t-18 106z M219 272q0 -98 61.5 -145t196.5 -47q68 0 130.5 12t115.5 64q55 53 55 188v127h-307q-252 0 -252 -199z" />
<glyph unicode="b" horiz-adv-x="1105" d="M199 0v1458h104v-598q66 86 137.5 112.5t155.5 26.5q78 0 140.5 -23.5t101.5 -62.5q76 -76 101.5 -189t25.5 -230t-26 -230.5t-101 -189.5q-39 -39 -101.5 -62.5t-140.5 -23.5q-84 0 -155.5 26.5t-137.5 112.5v-127h-104zM303 494q0 -76 9.5 -151t39 -133t85 -94 t145.5 -36t145 36t85 94t39 133t9 151q0 78 -9 151.5t-39 132t-85 94t-145 35.5t-145.5 -35.5t-85 -94t-39 -132.5t-9.5 -151z" />
<glyph unicode="c" horiz-adv-x="1009" d="M141 494q0 117 30 211t86 159.5t137 100t181 34.5q51 0 93.5 -7t81 -24.5t75.5 -47t76 -72.5l-72 -66q-31 35 -60.5 59.5t-59 39t-62.5 20.5t-72 6q-84 0 -150.5 -32.5t-111.5 -98.5q-37 -53 -52 -117.5t-15 -164.5t15 -165t52 -118q45 -66 112 -98.5t150 -32.5 q78 0 134.5 27.5t119.5 97.5l72 -66q-39 -43 -76 -72.5t-75.5 -47t-80.5 -24.5t-94 -7q-100 0 -181 34.5t-137 100t-86 160t-30 211.5z" />
<glyph unicode="d" horiz-adv-x="1105" d="M141 494q0 117 26 230.5t101 188.5q39 39 101.5 62.5t140.5 23.5q84 0 155.5 -26.5t137.5 -112.5v598h104v-1458h-104v127q-66 -86 -137.5 -112.5t-155.5 -26.5q-78 0 -140.5 23.5t-101.5 62.5q-76 76 -101.5 189.5t-25.5 230.5zM246 494q0 -76 9 -151t39 -133t85 -94 t145 -36t145.5 36t85 94t39 133t9.5 151q0 78 -9.5 151.5t-39 132t-85 94t-145.5 35.5t-145 -35.5t-85 -94t-39 -132.5t-9 -151z" />
<glyph unicode="e" horiz-adv-x="1071" d="M141 494q0 240 104.5 372.5t291.5 132.5q186 0 290.5 -127t104.5 -354v-47h-686q0 -188 82 -288.5t239 -100.5q88 0 148.5 27.5t124.5 91.5l78 -62q-37 -37 -75 -65.5t-80 -48t-91 -28.5t-111 -9q-205 0 -312.5 129t-107.5 377zM246 555h581q-2 35 -4 60.5t-6 45t-9 39 t-15 41.5q-33 78 -101.5 122t-154.5 44t-155 -44t-101 -122q-8 -23 -14.5 -42t-10.5 -38.5t-6 -45t-4 -60.5z" />
<glyph unicode="f" horiz-adv-x="622" d="M94 909v78h135v213q0 113 60.5 185.5t177.5 72.5h90v-92h-72q-78 0 -114.5 -43t-36.5 -121v-215h223v-78h-223v-909h-105v909h-135z" />
<glyph unicode="g" horiz-adv-x="1105" d="M141 494q0 117 26 230.5t101 188.5q39 39 101.5 62.5t140.5 23.5q84 0 155.5 -26.5t137.5 -112.5v127h104v-1042q0 -92 -26.5 -171t-78.5 -136.5t-127 -89t-171 -31.5q-55 0 -98.5 7t-81 23.5t-72.5 41t-74 59.5l70 69q29 -27 55.5 -47t55 -33.5t63.5 -20.5t82 -7 q78 0 134 25.5t93 71.5t54.5 108.5t17.5 136.5v176q-66 -86 -137.5 -112.5t-155.5 -26.5q-78 0 -140.5 23.5t-101.5 62.5q-76 76 -101.5 189.5t-25.5 230.5zM246 494q0 -76 9 -151t39 -133t85 -94t145 -36t145.5 36t85 94t39 133t9.5 151q0 78 -9.5 151.5t-39 132t-85 94 t-145.5 35.5t-145 -35.5t-85 -94t-39 -132.5t-9 -151z" />
<glyph unicode="h" horiz-adv-x="1144" d="M199 0v1458h104v-588q111 129 291 129q170 0 267 -98t97 -270v-631h-104v612q0 143 -69.5 219t-202.5 76t-206 -76.5t-73 -218.5v-612h-104z" />
<glyph unicode="i" horiz-adv-x="501" d="M186 1329v129h129v-129h-129zM199 0v987h104v-987h-104z" />
<glyph unicode="j" horiz-adv-x="501" d="M-25 -379h72q88 0 120 41t32 125v1200h104v-1202q0 -117 -58.5 -186.5t-178.5 -69.5h-91v92zM186 1329v129h129v-129h-129z" />
<glyph unicode="k" horiz-adv-x="1079" d="M199 0v1458h104v-1028l490 557h133l-326 -369l397 -618h-129l-340 543l-225 -260v-283h-104z" />
<glyph unicode="l" horiz-adv-x="587" d="M195 256v1202h104v-1200q0 -84 31.5 -125t120.5 -41h71v-92h-90q-121 0 -179 69.5t-58 186.5z" />
<glyph unicode="m" horiz-adv-x="1798" d="M199 0v987h104v-117q111 129 293 129q111 0 191.5 -46t125.5 -134q55 88 140.5 134t195.5 46q82 0 147.5 -24.5t112.5 -69.5q102 -98 103 -274v-631h-103v612q0 143 -69.5 219t-202.5 76q-129 0 -204 -74.5t-75 -201.5v-631h-104v612q0 143 -69.5 219t-202.5 76 t-206 -76.5t-73 -218.5v-612h-104z" />
<glyph unicode="n" horiz-adv-x="1144" d="M199 0v987h104v-117q111 129 291 129q164 0 262 -94q102 -98 102 -274v-631h-104v612q0 143 -69.5 219t-202.5 76t-206 -76.5t-73 -218.5v-612h-104z" />
<glyph unicode="o" horiz-adv-x="1077" d="M141 494q0 106 22.5 212.5t100.5 184.5q108 108 272 108h3q84 0 152.5 -27.5t121.5 -80.5q78 -78 100.5 -184.5t22.5 -212.5t-22.5 -213t-100.5 -185q-53 -53 -121.5 -80.5t-152.5 -27.5q-166 0 -275 108q-78 78 -100.5 184.5t-22.5 213.5zM246 494q0 -43 2 -88.5 t11 -89.5t26.5 -82.5t48.5 -69.5q84 -84 205 -84q59 0 111 21.5t93 62.5q31 31 48.5 69.5t26.5 82.5t11 89.5t2 88.5t-2 88t-11 89t-26.5 83t-48.5 69q-41 41 -93 62.5t-111 21.5q-121 0 -205 -84q-31 -31 -48.5 -69.5t-26.5 -82.5t-11 -89t-2 -88z" />
<glyph unicode="p" horiz-adv-x="1105" d="M199 -471v1458h104v-127q66 86 137.5 112.5t155.5 26.5q78 0 140.5 -23.5t101.5 -62.5q76 -76 101.5 -189t25.5 -230t-26 -230.5t-101 -189.5q-39 -39 -101.5 -62.5t-140.5 -23.5q-84 0 -155.5 26.5t-137.5 112.5v-598h-104zM303 494q0 -76 9.5 -151t39 -133t85 -94 t145.5 -36t145 36t85 94t39 133t9 151q0 78 -9 151.5t-39 132t-85 94t-145 35.5t-145.5 -35.5t-85 -94t-39 -132.5t-9.5 -151z" />
<glyph unicode="q" horiz-adv-x="1105" d="M141 494q0 117 26 230.5t101 188.5q39 39 101.5 62.5t140.5 23.5q84 0 155.5 -26.5t137.5 -112.5v127h104v-1458h-104v598q-66 -86 -137.5 -112.5t-155.5 -26.5q-78 0 -140.5 23.5t-101.5 62.5q-76 76 -101.5 189.5t-25.5 230.5zM246 494q0 -76 9 -151t39 -133t85 -94 t145 -36t145.5 36t85 94t39 133t9.5 151q0 78 -9.5 151.5t-39 132t-85 94t-145.5 35.5t-145 -35.5t-85 -94t-39 -132.5t-9 -151z" />
<glyph unicode="r" horiz-adv-x="837" d="M199 0v987h104v-131q43 70 122 106.5t167 36.5q72 0 128 -20.5t109 -73.5l-75 -76q-45 45 -85 61.5t-102 16.5q-63 0 -112 -24.5t-83 -65.5t-51.5 -95t-17.5 -114v-608h-104z" />
<glyph unicode="s" horiz-adv-x="1011" d="M102 129l72 72q115 -121 324 -121q145 0 221 50t76 151q0 78 -45 116.5t-144 48.5l-164 15q-297 25 -297 258q0 129 96.5 204.5t258.5 75.5q102 0 191 -27.5t155 -76.5l-70 -70q-115 84 -276 84q-123 0 -187.5 -49t-64.5 -141q0 -78 48 -117t153 -49l159 -14 q61 -6 114.5 -19.5t91.5 -43.5t60.5 -76.5t22.5 -118.5q0 -135 -106.5 -214t-288.5 -79q-129 0 -226.5 34.5t-173.5 106.5z" />
<glyph unicode="t" horiz-adv-x="665" d="M88 909v78h135v316h105v-316h223v-78h-223v-653q0 -78 36.5 -121t114.5 -43h72v-92h-90q-117 0 -177.5 72.5t-60.5 185.5v651h-135z" />
<glyph unicode="u" horiz-adv-x="1144" d="M186 356v631h105v-612q0 -143 69.5 -219t202.5 -76t206 76.5t73 218.5v612h104v-987h-104v117q-111 -129 -291 -129q-164 0 -262 94q-102 98 -103 274z" />
<glyph unicode="v" horiz-adv-x="880" d="M29 987h114l297 -864l297 864h115l-360 -987h-103z" />
<glyph unicode="w" horiz-adv-x="1458" d="M29 987h114l252 -864l283 864h102l283 -864l252 864h115l-316 -987h-106l-279 823l-278 -823h-107z" />
<glyph unicode="x" horiz-adv-x="942" d="M82 0l334 504l-320 483h127l250 -397l246 397h127l-320 -483l334 -504h-127l-260 416l-264 -416h-127z" />
<glyph unicode="y" horiz-adv-x="880" d="M29 987h114l297 -864l297 864h115l-459 -1255q-29 -80 -67 -115q-37 -35 -87.5 -49t-99.5 -14h-49v92h39q84 0 119 30.5t61 104.5l80 219z" />
<glyph unicode="z" horiz-adv-x="925" d="M111 0v98l594 797h-562v92h672v-98l-596 -797h596v-92h-704z" />
<glyph unicode="{" horiz-adv-x="647" d="M102 684v90h37q29 0 50.5 11.5t37.5 27.5q37 37 37 123v424q0 84 12.5 125t40.5 69q31 31 77 43.5t122 12.5h29v-92h-27q-55 0 -79.5 -5.5t-41.5 -21.5q-16 -16 -22 -46t-6 -87v-424q0 -80 -30 -126t-95 -79q66 -33 95.5 -79t29.5 -126v-424q0 -57 6 -86.5t22 -46.5 q16 -16 41 -21t80 -5h27v-93h-29q-76 0 -122 12.5t-77 43.5q-29 29 -41 69.5t-12 124.5v424q0 86 -37 123q-16 16 -37.5 27.5t-50.5 11.5h-37z" />
<glyph unicode="|" horiz-adv-x="649" d="M272 -152v1762h105v-1762h-105z" />
<glyph unicode="}" horiz-adv-x="647" d="M102 -59h27q55 0 79.5 5t41.5 21q16 16 22.5 46t6.5 87v424q0 80 29.5 126t94.5 79q-66 33 -95 79t-29 126v424q0 57 -6.5 87t-22.5 46t-41 21.5t-80 5.5h-27v92h29q76 0 122 -12.5t77 -43.5q29 -29 41 -69.5t12 -124.5v-424q0 -86 37 -123q16 -16 37.5 -27.5t50.5 -11.5 h37v-90h-37q-29 0 -50.5 -11t-37.5 -28q-37 -37 -37 -123v-424q0 -84 -12.5 -125t-40.5 -69q-31 -31 -77 -43.5t-122 -12.5h-29v93z" />
<glyph unicode="~" d="M109 522q41 41 72.5 66.5t58 39t51 17.5t55.5 4q51 0 102.5 -20.5t106.5 -42.5q43 -18 79 -32.5t77 -14.5q23 0 40 3t35.5 12t41 27.5t53.5 49.5l63 -64q-41 -41 -72.5 -66.5t-58.5 -38.5t-51.5 -17.5t-54.5 -4.5q-51 0 -102.5 20.5t-106.5 43.5q-43 18 -79 32.5 t-77 14.5q-20 0 -38.5 -3t-37 -12.5t-41 -28t-53.5 -48.5z" />
<glyph horiz-adv-x="1232" d="M31 0l536 1458h99l536 -1458h-119l-127 354h-680l-126 -354h-119zM311 453h611l-306 858zM383 1763q0 49 18 91.5t50 74t74 50t91 18.5t91 -18.5t74 -50t50 -74t18 -91.5t-18 -91t-50 -74.5t-74 -51t-91 -18.5t-91 18.5t-74 51t-50 74.5t-18 91zM466 1763 q0 -61 44.5 -105t105.5 -44t105.5 44t44.5 105t-44.5 104.5t-105.5 43.5t-105.5 -43t-44.5 -105z" />
<glyph horiz-adv-x="1019" d="M141 494q0 117 30 211t86 159.5t137 100t181 34.5q51 0 93.5 -7t81 -24.5t75.5 -47t76 -72.5l-72 -66q-31 35 -60.5 59.5t-59 39t-62.5 20.5t-72 6q-84 0 -150.5 -32.5t-111.5 -98.5q-37 -53 -52 -117.5t-15 -164.5t15 -165t52 -118q45 -66 112 -98.5t150 -32.5 q78 0 134.5 27.5t119.5 97.5l72 -66l-2 2q-68 -76 -128 -109.5t-138 -41.5v-209h-103v209q-182 16 -285.5 148t-103.5 356z" />
<glyph horiz-adv-x="1071" d="M141 494q0 240 104.5 372.5t291.5 132.5q186 0 290.5 -127t104.5 -354v-47h-686q0 -188 82 -288.5t239 -100.5q88 0 148.5 27.5t124.5 91.5l78 -62q-37 -37 -75 -65.5t-80 -48t-91 -28.5t-111 -9q-205 0 -312.5 129t-107.5 377zM246 555h581q-2 35 -4 60.5t-6 45t-9 39 t-15 41.5q-33 78 -101.5 122t-154.5 44t-155 -44t-101 -122q-8 -23 -14.5 -42t-10.5 -38.5t-6 -45t-4 -60.5zM445 1208l198 301h138l-217 -301h-119z" />
<glyph horiz-adv-x="1071" d="M141 494q0 240 104.5 372.5t291.5 132.5q186 0 290.5 -127t104.5 -354v-47h-686q0 -188 82 -288.5t239 -100.5q88 0 148.5 27.5t124.5 91.5l78 -62q-37 -37 -75 -65.5t-80 -48t-91 -28.5t-111 -9q-205 0 -312.5 129t-107.5 377zM246 555h581q-2 35 -4 60.5t-6 45t-9 39 t-15 41.5q-33 78 -101.5 122t-154.5 44t-155 -44t-101 -122q-8 -23 -14.5 -42t-10.5 -38.5t-6 -45t-4 -60.5zM301 1509h138l198 -301h-119z" />
<glyph horiz-adv-x="1071" d="M141 494q0 240 104.5 372.5t291.5 132.5q186 0 290.5 -127t104.5 -354v-47h-686q0 -188 82 -288.5t239 -100.5q88 0 148.5 27.5t124.5 91.5l78 -62q-37 -37 -75 -65.5t-80 -48t-91 -28.5t-111 -9q-205 0 -312.5 129t-107.5 377zM234 1208l252 301h110l252 -301h-117 l-190 224l-190 -224h-117zM246 555h581q-2 35 -4 60.5t-6 45t-9 39t-15 41.5q-33 78 -101.5 122t-154.5 44t-155 -44t-101 -122q-8 -23 -14.5 -42t-10.5 -38.5t-6 -45t-4 -60.5z" />
<glyph horiz-adv-x="1144" d="M186 356v631h105v-612q0 -143 69.5 -219t202.5 -76t206 76.5t73 218.5v612h104v-987h-104v117q-111 -129 -291 -129q-164 0 -262 94q-102 98 -103 274zM325 1509h138l198 -301h-119z" />
<glyph horiz-adv-x="1144" d="M186 356v631h105v-612q0 -143 69.5 -219t202.5 -76t206 76.5t73 218.5v612h104v-987h-104v117q-111 -129 -291 -129q-164 0 -262 94q-102 98 -103 274zM258 1208l252 301h110l252 -301h-117l-190 224l-190 -224h-117z" />
<glyph unicode="&#xa0;" horiz-adv-x="1257" d="M164 936v92h409v430h105v-430h416v-92h-416v-936h-105v936h-409z" />
<glyph unicode="&#xa1;" horiz-adv-x="937" d="M147 1151q0 68 26 126t69 101t101 69t126 26t126 -26t101 -69t69 -101t26 -126t-26 -126t-69 -101t-101 -69t-126 -26t-126 26t-101 69t-69 101t-26 126zM240 1151q0 -51 17 -94t48 -75t73 -49.5t91 -17.5t91 17.5t73 49.5t48 75t17 94q0 49 -17 92t-49 75t-74 50t-91 18 t-91 -17t-72 -49t-47 -75t-17 -94z" />
<glyph unicode="&#xa2;" horiz-adv-x="1019" d="M141 750q0 217 97.5 348t271.5 153v207h88v-203q47 -2 86 -10t75 -25.5t70.5 -46t71.5 -69.5l-72 -66q-59 66 -110 93.5t-121 31.5v-827q70 4 121 31.5t110 93.5l72 -66q-37 -41 -71.5 -69.5t-70.5 -46t-75 -25.5t-86 -10v-244h-88v248q-174 23 -271.5 153.5t-97.5 348.5 zM246 750q0 -100 15 -165t52 -118q72 -102 197 -125v815q-125 -23 -197 -125q-37 -53 -52 -117.5t-15 -164.5z" />
<glyph unicode="&#xa3;" horiz-adv-x="1099" d="M102 700v78h131v250q0 100 31 181t87.5 139.5t137 90t179.5 31.5q195 0 319 -124l-76 -76q-41 41 -94 71.5t-149 30.5q-158 0 -241 -95t-83 -271v-228h324v-78h-324v-602h643v-98h-754v700h-131z" />
<glyph unicode="&#xa4;" horiz-adv-x="1159" d="M199 506q0 66 18.5 120t49 98t71.5 77t86 53q-96 41 -149.5 108.5t-53.5 180.5q0 78 29 138t77 102t113.5 64.5t139.5 22.5q72 0 136 -20t113.5 -59t80 -97.5t34.5 -132.5h-108q-10 115 -77 164t-179 49q-115 0 -182.5 -57t-67.5 -174q0 -94 53 -145.5t133 -73.5l170 -47 q66 -18 116 -53.5t86 -84.5t54.5 -108t18.5 -125t-18.5 -120t-49.5 -98t-72 -77t-86 -53q96 -33 153.5 -111t57.5 -188q0 -74 -26.5 -137.5t-75.5 -108.5t-117 -70.5t-147 -25.5q-76 0 -142.5 21.5t-117 61.5t-81 99t-36.5 135h110q10 -111 80 -165t187 -54t186.5 62.5 t69.5 181.5q0 82 -52.5 143t-140.5 86l-170 47q-131 37 -202.5 137.5t-71.5 233.5zM309 506q0 -70 18.5 -120t53.5 -87q78 -84 199 -84t198 84q35 39 53.5 87t18.5 120q0 59 -13.5 110.5t-58.5 96.5q-84 84 -198 84q-121 0 -199 -84q-41 -45 -56.5 -93.5t-15.5 -113.5z" />
<glyph unicode="&#xa5;" horiz-adv-x="1118" d="M225 684q0 70 27 130t72 105.5t105 72t130 26.5t130.5 -26.5t105.5 -72t71.5 -105.5t26.5 -130t-26.5 -130t-71.5 -105.5t-105.5 -72t-130.5 -26.5t-130 26.5t-105 72t-72 105.5t-27 130z" />
<glyph unicode="&#xa6;" horiz-adv-x="1185" d="M92 1069q0 76 27.5 145.5t83 124t136.5 87t185 32.5h437v-1929h-105v1831h-252v-1831h-104v1151q-98 0 -174 34t-128.5 89t-79 124.5t-26.5 141.5z" />
<glyph unicode="&#xa7;" horiz-adv-x="1126" d="M199 0v1075q0 186 103.5 292t289.5 106q76 0 144.5 -19.5t119.5 -60.5t81 -103.5t30 -148.5q0 -164 -129 -250q41 -20 65.5 -45t39.5 -54.5t20.5 -67.5t5.5 -87v-363q0 -66 -21.5 -118t-58.5 -86q-41 -37 -85 -53.5t-110 -16.5h-110v92h90q49 0 76.5 11.5t56.5 33.5 q57 45 57 150v366q0 49 -10 82t-37 58q-47 47 -133 47h-100v92h80q92 0 146 57.5t54 151.5q0 51 -18.5 97t-52.5 77q-68 66 -213 65q-147 0 -212 -85t-65 -220v-1075h-104z" />
<glyph unicode="&#xa8;" horiz-adv-x="1830" d="M174 729q0 154 58.5 289t159 235.5t235.5 158.5t288 58q154 0 289 -58t235.5 -158.5t159 -235.5t58.5 -289t-58.5 -289t-159 -235.5t-235.5 -158.5t-289 -58t-288.5 58t-235 158.5t-159 235.5t-58.5 289zM270 729q0 -133 51.5 -252t138.5 -208t204.5 -141t250.5 -52 t251 52t205 141t138.5 208t51.5 252t-51.5 252t-138.5 208t-204.5 141t-251.5 52q-133 0 -250.5 -52t-204.5 -141t-138.5 -208t-51.5 -252zM682 319v822h262q51 0 97 -18.5t81 -50.5t55.5 -76t20.5 -97q0 -92 -52 -149.5t-134 -79.5l207 -351h-107l-203 343h-135v-343h-92z M774 743h160q74 0 123 44t49 112t-49 113t-123 45h-160v-314z" />
<glyph unicode="&#xa9;" horiz-adv-x="1830" d="M174 729q0 154 58.5 289t159 235.5t235.5 158.5t288 58q154 0 289 -58t235.5 -158.5t159 -235.5t58.5 -289t-58.5 -289t-159 -235.5t-235.5 -158.5t-289 -58t-288.5 58t-235 158.5t-159 235.5t-58.5 289zM272 729q0 -131 51.5 -250t138.5 -208t204.5 -141t248.5 -52 q133 0 250 52t204 141t138.5 208t51.5 250q0 133 -51.5 251t-138.5 207t-203.5 141t-250.5 52q-131 0 -248.5 -52t-204.5 -141t-138.5 -207t-51.5 -251zM561 729q0 86 21.5 163t66.5 135t112.5 92t162.5 34q86 0 145 -25.5t123 -83.5l-62 -61q-55 49 -100 67.5t-106 18.5 q-78 0 -130.5 -27.5t-83 -74.5t-44 -108.5t-13.5 -129.5t13.5 -129t44 -107.5t83 -74t130.5 -27.5q61 0 106 17.5t100 66.5l62 -61q-59 -53 -120.5 -80t-147.5 -27q-94 0 -162 34t-113 91t-66.5 134t-21.5 163z" />
<glyph unicode="&#xaa;" horiz-adv-x="1656" d="M66 1374v84h589v-84h-249v-790h-91v790h-249zM817 584v874h90l273 -553l272 553h90v-874h-90v671l-225 -446h-94l-226 446v-671h-90z" />
<glyph unicode="&#xab;" horiz-adv-x="1024" d="M416 1208l198 301h138l-217 -301h-119z" />
<glyph unicode="&#xac;" horiz-adv-x="1024" d="M240 1229v157h118v-157h-118zM666 1229v157h118v-157h-118z" />
<glyph unicode="&#xad;" d="M109 188l145 146h-145v96h241l217 217h-458v96h555l213 213l67 -67l-145 -146h145v-96h-242l-217 -217h459v-96h-555l-213 -213z" />
<glyph unicode="&#xae;" horiz-adv-x="1845" d="M20 0l773 1458h938v-98h-775v-582h660v-98h-660v-582h775v-98h-883v354h-522l-185 -354h-121zM373 453h475v907z" />
<glyph unicode="&#xaf;" horiz-adv-x="1335" d="M168 729q0 123 2 213t15.5 157.5t41 120t76.5 101.5q72 72 166 110.5t199 38.5q145 0 266 -71l72 149h108l-100 -209l18 -18q49 -49 77 -101.5t41 -120t15 -157.5t2 -213t-2 -212t-15 -156.5t-41 -121t-77 -102.5q-72 -72 -166 -110.5t-198 -38.5q-145 0 -267 71 l-71 -149h-109l101 209l-19 18q-49 49 -76.5 102.5t-41 121t-15.5 156.5t-2 212zM279 729q0 -109 2 -187.5t11 -137t27.5 -102.5t51.5 -81l518 1084q-47 35 -104.5 51t-116.5 16q-78 0 -150 -28.5t-127 -83.5q-39 -39 -61.5 -83t-33.5 -104.5t-14 -143.5t-3 -200zM446 154 q96 -68 222 -68q78 0 149.5 28.5t126.5 84.5q39 39 61.5 83t34 104t14.5 143t3 200q0 109 -2 187.5t-11.5 137t-28 102.5t-50.5 81z" />
<glyph unicode="&#xb0;" horiz-adv-x="1622" d="M147 532q0 66 23 122.5t62.5 97.5t96 64.5t122.5 23.5q100 0 182 -53.5t178 -172.5q47 59 90 101.5t85 70t88 41t100 13.5q66 0 121 -23.5t95 -64.5t62.5 -97.5t22.5 -122.5t-22.5 -121t-62.5 -96t-95.5 -63.5t-120.5 -22.5q-53 0 -98.5 12.5t-88.5 39t-86 68.5t-90 102 q-94 -119 -176 -171.5t-184 -52.5q-66 0 -122.5 23.5t-96 64.5t-62.5 96.5t-23 120.5zM246 532q0 -94 58 -151t153 -57q41 0 76.5 14t70.5 42t71 65.5t75 86.5q-39 49 -75 88t-71 68t-70.5 44.5t-76.5 15.5q-94 0 -152.5 -60.5t-58.5 -155.5zM872 532q80 -96 145.5 -152 t147.5 -56q94 0 152.5 57t58.5 151t-58 152.5t-153 58.5q-82 0 -147.5 -57t-145.5 -154z" />
<glyph unicode="&#xb1;" d="M109 0v96h835v-96h-835zM109 553v96h370v371h96v-371h369v-96h-369v-373h-96v373h-370z" />
<glyph unicode="&#xb2;" horiz-adv-x="2103" d="M391 29v1171h1170l100 -100h-1098l1186 -1186l-72 -72l-1188 1186v-1098z" />
<glyph unicode="&#xb3;" horiz-adv-x="2103" d="M354 -86l1186 1186h-1098l101 100h1169v-1171l-98 -99v1098l-1188 -1186z" />
<glyph unicode="&#xb4;" horiz-adv-x="1009" d="M20 1458h117l371 -739l366 739h115l-334 -667h222v-78h-261l-55 -109v-108h316v-78h-316v-418h-110v418h-318v78h318v108l-56 109h-262v78h223z" />
<glyph unicode="&#xb5;" horiz-adv-x="1138" d="M180 -471v1458h105v-612q0 -143 69.5 -219t202.5 -76t206 76.5t73 218.5v612h104v-987h-104v117q-111 -129 -291 -129q-162 0 -260 92v-551h-105z" />
<glyph unicode="&#xb6;" horiz-adv-x="1105" d="M141 494q0 117 21.5 222t97.5 181q41 41 105.5 71.5t144.5 30.5q84 0 155.5 -26.5t137.5 -112.5v176q0 74 -17.5 136.5t-54.5 108.5t-93 71.5t-134 25.5q-47 0 -82 -7t-63.5 -20.5t-55.5 -34t-55 -46.5l-68 67q39 35 74 59.5t71.5 41t80 24.5t98.5 8q96 0 172 -30.5 t127 -88t77.5 -135t26.5 -174.5v-548q0 -53 -4 -107.5t-17.5 -106t-37 -98.5t-60.5 -86q-104 -109 -264 -108q-160 0 -264 108q-37 39 -60.5 86t-36.5 98.5t-17.5 105.5t-4.5 108zM246 494q0 -43 2 -88.5t10 -89.5t25.5 -82.5t46.5 -69.5q80 -84 194 -84q115 0 195 84 q29 31 46 69.5t25.5 82.5t10.5 89.5t2 88.5t-2 88t-10.5 89t-25.5 83t-46 69q-80 84 -195 84t-194 -84q-29 -31 -46.5 -69.5t-25.5 -82.5t-10 -89t-2 -88z" />
<glyph unicode="&#xb8;" horiz-adv-x="1431" d="M225 -471v2027h981v-2027h-110v1929h-760v-1929h-111z" />
<glyph unicode="&#xb9;" horiz-adv-x="1210" d="M225 0v987h760v-987h-98v895h-563v-895h-99z" />
<glyph unicode="&#xba;" horiz-adv-x="673" d="M61 -379h72q78 0 115 43t37 121v1415q0 113 60.5 185.5t176.5 72.5h90v-92h-71q-78 0 -115 -43t-37 -121v-1415q0 -113 -60.5 -185.5t-176.5 -72.5h-91v92z" />
<glyph unicode="&#xbb;" horiz-adv-x="915" d="M121 885q0 109 71.5 168t200.5 59h248v86q0 92 -49 139t-166 47q-82 0 -129 -21.5t-84 -76.5l-66 55q53 72 119 97.5t160 25.5q154 0 228.5 -67.5t74.5 -190.5v-536h-88v73q-49 -47 -101.5 -65.5t-131.5 -18.5q-86 0 -138.5 15.5t-91.5 56.5q-29 29 -43 69t-14 85z M209 887q0 -76 47 -112t152 -36q53 0 102 9.5t90 48.5t41 147v96h-238q-195 0 -194 -153z" />
<glyph unicode="&#xbc;" horiz-adv-x="925" d="M147 1063q0 86 17.5 169t81.5 146q86 86 217 86t217 -86q63 -63 80.5 -146t17.5 -169t-17.5 -169t-80.5 -146q-86 -86 -217 -86t-217 86q-63 63 -81 146t-18 169zM236 1063q0 -66 10 -137.5t57 -118.5q31 -31 72 -48.5t88 -17.5t88 17.5t72 48.5q47 47 57 118.5t10 137.5 t-10 137.5t-57 118.5q-66 66 -160 65q-94 0 -160 -65q-47 -47 -57 -119t-10 -137z" />
<glyph unicode="&#xbd;" horiz-adv-x="1335" d="M168 0v96h186q-47 37 -75.5 71t-51.5 75q-25 45 -37 101t-17 119.5t-5 131.5v135q0 123 2 213t15.5 157.5t41 120t76.5 101.5q72 72 166 110.5t199 38.5q104 0 198.5 -38.5t165.5 -110.5q49 -49 77 -101.5t41 -120t15 -157.5t2 -213v-135.5t-5 -131t-17 -119.5t-37 -101 q-23 -41 -51.5 -75t-75.5 -71h186v-96h-381v96q72 35 123.5 75t91.5 105q39 63 47.5 175t8.5 278q0 117 -3 200t-14.5 143.5t-34 104.5t-61.5 83q-55 55 -127 83.5t-149 28.5q-78 0 -150 -28.5t-127 -83.5q-39 -39 -61.5 -83t-33.5 -104.5t-14 -143.5t-3 -200 q0 -166 8 -277.5t47 -175.5q41 -66 92 -105.5t123 -74.5v-96h-381z" />
<glyph unicode="&#xbe;" horiz-adv-x="1708" d="M115 270q0 135 91 210t253 75h319v111q0 119 -63.5 180t-214.5 61q-104 0 -165 -28.5t-108 -96.5l-75 66q63 88 145 119.5t203 31.5q279 0 354 -174q51 86 132 130t188 44q186 0 290.5 -127t104.5 -354v-47h-686q0 -188 82 -288.5t239 -100.5q88 0 148.5 27.5t124.5 91.5 l77 -62q-76 -76 -155.5 -113.5t-202.5 -37.5q-250 0 -352 184q-61 -100 -145.5 -142t-221.5 -42q-111 0 -177.5 20.5t-113.5 69.5q-35 35 -53 86t-18 106zM219 272q0 -98 61.5 -145t196.5 -47q68 0 130.5 12t115.5 64q55 53 55 188v127h-307q-252 0 -252 -199zM883 555h581 q-2 35 -4 60.5t-6 45t-9 39t-15 41.5q-33 78 -101.5 122t-154.5 44t-155 -44t-101 -122q-8 -23 -14.5 -42t-10.5 -38.5t-6 -45t-4 -60.5z" />
<glyph unicode="&#xbf;" horiz-adv-x="1077" d="M141 494q0 106 22.5 212.5t100.5 184.5q109 109 275 108q123 0 215 -61l82 139h98l-115 -192q74 -78 95.5 -182.5t21.5 -208.5q0 -106 -22.5 -213t-100.5 -185q-53 -53 -121.5 -80.5t-152.5 -27.5q-121 0 -215 59l-82 -137h-99l115 192q-74 78 -95.5 182.5t-21.5 209.5z M246 494q0 -78 9 -159t56 -145l394 666q-74 51 -166 51q-121 0 -205 -84q-31 -31 -48.5 -69.5t-26.5 -82.5t-11 -89t-2 -88zM373 131q74 -51 166 -51q59 0 111 21.5t93 62.5q31 31 48.5 69.5t26.5 82.5t11 89.5t2 88.5q0 78 -9 158.5t-56 144.5z" />
<glyph unicode="&#xc0;" horiz-adv-x="999" d="M102 -123q0 72 25 128t66 116l174 256q20 29 28 63.5t8 59.5v96h105v-92q0 -59 -14.5 -99t-44.5 -86l-173 -253q-31 -47 -50 -88t-19 -101q0 -57 19.5 -106.5t55 -85t84 -56t103.5 -20.5q59 0 108.5 21.5t83 58.5t52 86t18.5 102h105q0 -74 -27 -139.5t-75 -114.5 t-115.5 -77.5t-149.5 -28.5q-78 0 -145.5 27.5t-116.5 75.5t-77 113.5t-28 143.5zM387 850v137h137v-137h-137z" />
<glyph unicode="&#xc1;" horiz-adv-x="622" d="M213 850v137h137v-137h-137zM225 -471l6 1065h101l6 -1065h-113z" />
<glyph unicode="&#xc2;" d="M109 492v96h835v-369h-96v273h-739z" />
<glyph unicode="&#xc3;" horiz-adv-x="1126" d="M20 987h115l258 -792l408 1263h264v-98h-180l-445 -1360h-94z" />
<glyph unicode="&#xc4;" horiz-adv-x="806" d="M61 700v78h238l74 422q20 113 93 185.5t189 72.5h90v-92h-88q-78 0 -121.5 -43t-58.5 -121l-74 -424h224v-78h-238l-207 -1171h-104l207 1171h-224z" />
<glyph unicode="&#xc5;" d="M109 358q41 41 72.5 67t58 39t51 17t55.5 4q51 0 102.5 -20.5t106.5 -42.5q43 -18 79 -32.5t77 -14.5q23 0 40 3t35.5 12t41 27.5t53.5 49.5l63 -64q-41 -41 -72.5 -66.5t-58.5 -38.5t-51.5 -17.5t-54.5 -4.5q-51 0 -102.5 20.5t-106.5 43.5q-43 18 -79 32.5t-77 14.5 q-20 0 -38.5 -3t-37 -12.5t-41 -27.5t-53.5 -49zM109 686q41 41 72.5 66.5t58 39t51 17.5t55.5 4q51 0 102.5 -20.5t106.5 -42.5q43 -18 79 -33t77 -15q23 0 40 3.5t35.5 12.5t41 27.5t53.5 49.5l63 -64q-41 -41 -72.5 -66.5t-58.5 -39t-51.5 -17.5t-54.5 -4 q-51 0 -102.5 20.5t-106.5 43.5q-43 18 -79 32.5t-77 14.5q-20 0 -38.5 -3t-37 -12.5t-41 -28t-53.5 -48.5z" />
<glyph unicode="&#xc6;" horiz-adv-x="1210" d="M20 0l537 1458h96l537 -1458h-1170zM164 98h883l-443 1213z" />
<glyph unicode="&#xc7;" horiz-adv-x="1079" d="M86 543l401 401v-135l-266 -266l266 -267v-135zM510 543l401 401v-135l-266 -266l266 -267v-135z" />
<glyph unicode="&#xc8;" horiz-adv-x="1079" d="M168 141v135l266 267l-266 266v135l401 -401zM592 141v135l266 267l-266 266v135l401 -401z" />
<glyph unicode="&#xc9;" horiz-adv-x="1482" d="M195 0v152h151v-152h-151zM666 0v152h151v-152h-151zM1137 0v152h151v-152h-151z" />
<glyph unicode="&#xca;" horiz-adv-x="522" />
<glyph unicode="&#xcb;" horiz-adv-x="1232" d="M31 0l536 1458h99l536 -1458h-119l-127 354h-680l-126 -354h-119zM311 453h611l-306 858zM376 1898h138l198 -301h-119z" />
<glyph unicode="&#xcc;" horiz-adv-x="1232" d="M31 0l536 1458h99l536 -1458h-119l-127 354h-680l-126 -354h-119zM301 1712q35 35 62.5 55.5t49 29.5t39 11t31.5 2q45 0 74.5 -13t66.5 -36q33 -20 58.5 -31.5t56.5 -11.5q23 0 48.5 10.5t72.5 57.5l61 -60q-35 -35 -62.5 -55t-50 -29.5t-39 -11.5t-30.5 -2 q-43 0 -75 14.5t-66 34.5q-29 16 -56.5 29.5t-58.5 13.5q-25 0 -49.5 -10t-71.5 -57zM311 453h611l-306 858z" />
<glyph unicode="&#xcd;" horiz-adv-x="1335" d="M168 729q0 123 2 213t15.5 157.5t41 120t76.5 101.5q72 72 166 110.5t199 38.5q104 0 198.5 -38.5t165.5 -110.5q49 -49 77 -101.5t41 -120t15 -157.5t2 -213t-2 -212t-15 -156.5t-41 -121t-77 -102.5q-72 -72 -166 -110.5t-198 -38.5t-198.5 39t-166.5 110 q-49 49 -76.5 102.5t-41 121t-15.5 156.5t-2 212zM279 729q0 -117 3 -200t14 -143t33.5 -104t61.5 -83q55 -55 127 -84t150 -29t149.5 28.5t126.5 84.5q39 39 61.5 83t34 104t14.5 143t3 200t-3 200t-14.5 143.5t-34 104.5t-61.5 83q-55 55 -127 83.5t-149 28.5 q-78 0 -150 -28.5t-127 -83.5q-39 -39 -61.5 -83t-33.5 -104.5t-14 -143.5t-3 -200zM353 1712q35 35 62.5 55.5t49 29.5t39 11t31.5 2q45 0 74.5 -13t66.5 -36q33 -20 58.5 -31.5t56.5 -11.5q23 0 48.5 10.5t72.5 57.5l61 -60q-35 -35 -62.5 -55t-50 -29.5t-39 -11.5 t-30.5 -2q-43 0 -75 14.5t-66 34.5q-29 16 -56.5 29.5t-58.5 13.5q-25 0 -49.5 -10t-71.5 -57z" />
<glyph unicode="&#xce;" horiz-adv-x="2041" d="M168 729q0 123 2 213t15.5 157.5t41 120t76.5 101.5q72 72 166 110.5t199 38.5q240 0 389 -186v174h864v-96h-756q0 -147 1 -291.5t1 -292.5h641v-86h-641q0 -150 -1 -298t-1 -298h762v-96h-870v174q-74 -92 -175.5 -139t-213.5 -47q-104 0 -198.5 39t-166.5 110 q-49 49 -76.5 102.5t-41 121t-15.5 156.5t-2 212zM279 729q0 -117 3 -200t14 -143t33.5 -104t61.5 -83q55 -55 127 -84t150 -29t149.5 28.5t126.5 84.5q39 39 61.5 83t34 104t14.5 143t3 200t-3 200t-14.5 143.5t-34 104.5t-61.5 83q-55 55 -127 83.5t-149 28.5 q-78 0 -150 -28.5t-127 -83.5q-39 -39 -61.5 -83t-33.5 -104.5t-14 -143.5t-3 -200z" />
<glyph unicode="&#xcf;" horiz-adv-x="1761" d="M141 494q0 106 22.5 212.5t100.5 184.5q109 109 275 108q117 0 209 -55t139 -160q47 104 134 159.5t206 55.5q186 0 290.5 -127t104.5 -354v-47h-686q0 -188 82 -288.5t239 -100.5q88 0 148.5 27.5t124.5 91.5l78 -62q-37 -37 -75 -65.5t-80 -48t-91 -28.5t-111 -9 q-264 0 -364 215q-47 -104 -140.5 -159.5t-207.5 -55.5q-166 0 -275 108q-78 78 -100.5 184.5t-22.5 213.5zM246 494q0 -43 2 -88.5t11 -89.5t26.5 -82.5t48.5 -69.5q84 -84 205 -84q59 0 111 21.5t93 62.5q31 31 48.5 69.5t26.5 82.5t11 89.5t2 88.5t-2 88t-11 89t-26.5 83 t-48.5 69q-41 41 -93 62.5t-111 21.5q-121 0 -205 -84q-31 -31 -48.5 -69.5t-26.5 -82.5t-11 -89t-2 -88zM936 555h582q-2 35 -4.5 60.5t-6.5 45t-9 39t-15 41.5q-33 78 -101.5 122t-154.5 44t-154.5 -44t-101.5 -122q-8 -23 -14.5 -42t-10.5 -38.5t-6 -45t-4 -60.5z" />
<glyph unicode="&#xd0;" d="M109 492v96h835v-96h-835z" />
<glyph unicode="&#xd1;" horiz-adv-x="1787" d="M168 492v96h1452v-96h-1452z" />
<glyph unicode="&#xd2;" horiz-adv-x="851" d="M195 1315v143l143 144v-287h-143zM514 1315v143l143 144v-287h-143z" />
<glyph unicode="&#xd3;" horiz-adv-x="851" d="M195 1171v287h143v-143zM514 1171v287h143v-143z" />
<glyph unicode="&#xd4;" horiz-adv-x="532" d="M195 1315v143l143 144v-287h-143z" />
<glyph unicode="&#xd5;" horiz-adv-x="532" d="M195 1171v287h143v-143z" />
<glyph unicode="&#xd6;" d="M109 492v96h835v-96h-835zM455 123v143h143v-143h-143zM455 813v143h143v-143h-143z" />
<glyph unicode="&#xd7;" horiz-adv-x="1339" d="M147 729l523 744l522 -744l-522 -743zM264 729l406 -588l405 588l-405 584z" />
<glyph unicode="&#xd8;" horiz-adv-x="880" d="M29 987h114l297 -864l297 864h115l-459 -1255q-29 -80 -67 -115q-37 -35 -87.5 -49t-99.5 -14h-49v92h39q84 0 119 30.5t61 104.5l80 219zM170 1229v157h118v-157h-118zM596 1229v157h118v-157h-118z" />
<glyph unicode="&#xd9;" horiz-adv-x="1011" d="M20 1458h119l371 -737l362 737h119l-430 -854v-604h-110v604zM236 1618v157h118v-157h-118zM662 1618v157h118v-157h-118z" />
<glyph unicode="&#xda;" horiz-adv-x="1333" d="M168 729q0 123 2 213t15.5 157.5t41 120t76.5 101.5q72 72 166 110.5t199 38.5q96 0 179 -30.5t148.5 -86t109.5 -134t60 -175.5h-110q-33 152 -136.5 240t-250.5 88q-78 0 -150 -28.5t-127 -83.5q-39 -39 -61.5 -83t-33.5 -104.5t-14 -143.5t-3 -200t3 -200t14 -143 t33.5 -104t61.5 -83q55 -55 127 -84t150 -29q86 0 165.5 36t137.5 105q47 59 67.5 127t20.5 162v131h-391v98h501v-237q0 -115 -26.5 -199t-91.5 -153q-72 -80 -172.5 -124t-210.5 -44q-104 0 -198.5 39t-166.5 110q-49 49 -76.5 102.5t-41 121t-15.5 156.5t-2 212z M315 1622v100h697v-100h-697z" />
<glyph unicode="&#xdb;" horiz-adv-x="1105" d="M141 494q0 117 26 230.5t101 188.5q39 39 101.5 62.5t140.5 23.5q84 0 155.5 -26.5t137.5 -112.5v127h104v-1042q0 -92 -26.5 -171t-78.5 -136.5t-127 -89t-171 -31.5q-55 0 -98.5 7t-81 23.5t-72.5 41t-74 59.5l70 69q29 -27 55.5 -47t55 -33.5t63.5 -20.5t82 -7 q78 0 134 25.5t93 71.5t54.5 108.5t17.5 136.5v176q-66 -86 -137.5 -112.5t-155.5 -26.5q-78 0 -140.5 23.5t-101.5 62.5q-76 76 -101.5 189.5t-25.5 230.5zM246 494q0 -76 9 -151t39 -133t85 -94t145 -36t145.5 36t85 94t39 133t9.5 151q0 78 -9.5 151.5t-39 132t-85 94 t-145.5 35.5t-145 -35.5t-85 -94t-39 -132.5t-9 -151zM254 1225v94h606v-94h-606z" />
<glyph unicode="&#xdc;" horiz-adv-x="561" d="M225 0v1458h111v-1458h-111zM225 1618v158h123v-158h-123z" />
<glyph unicode="&#xdd;" horiz-adv-x="501" d="M199 0v987h104v-987h-104z" />
<glyph unicode="&#xde;" horiz-adv-x="1202" d="M104 180l78 78q49 -49 95.5 -82t95.5 -53.5t103 -28.5t120 -8q174 0 274.5 79t100.5 222q0 66 -19.5 118t-60.5 87q-20 16 -38.5 28.5t-42.5 20.5t-54.5 15.5t-75.5 13.5l-170 26q-166 25 -260 107q-115 96 -115 268q0 184 121 291.5t332 107.5q135 0 230 -37.5 t190 -119.5l-72 -72q-33 31 -69 55.5t-76.5 42t-92 27.5t-116.5 10q-160 0 -249 -81t-89 -220q0 -127 75 -190q39 -33 97.5 -56.5t120.5 -33.5l157 -25q102 -14 158.5 -35.5t101.5 -60.5q59 -49 93 -122t34 -161q0 -174 -115.5 -280.5t-318.5 -120.5v-209h-102v209 q-145 6 -246.5 52t-194.5 138z" />
<glyph unicode="&#xdf;" horiz-adv-x="1011" d="M102 129l72 72q115 -121 324 -121q145 0 221 50t76 151q0 78 -45 116.5t-144 48.5l-164 15q-297 25 -297 258q0 129 96.5 204.5t258.5 75.5q102 0 191 -27.5t155 -76.5l-70 -70q-115 84 -276 84q-123 0 -187.5 -49t-64.5 -141q0 -78 48 -117t153 -49l159 -14 q61 -6 114.5 -19.5t91.5 -43.5t60.5 -77t22.5 -118q0 -123 -89 -200t-243 -91v-209h-100v207q-227 8 -363 141z" />
<glyph unicode="&#xe0;" horiz-adv-x="1257" d="M164 -41v92h409v885h-409v92h409v430h105v-430h416v-92h-416v-885h416v-92h-416v-430h-105v430h-409z" />
<glyph unicode="&#xe1;" horiz-adv-x="540" d="M195 465v151h151v-151h-151z" />
<glyph unicode="&#xe2;" horiz-adv-x="532" d="M195 -143v286h143v-143z" />
<glyph unicode="&#xe3;" horiz-adv-x="851" d="M195 -143v286h143v-143zM514 -143v286h143v-143z" />
<glyph unicode="&#xe4;" horiz-adv-x="2392" d="M141 979v219q0 123 75 199t196 76q119 0 193.5 -76t74.5 -199v-219q0 -121 -75 -196.5t-193 -75.5q-121 0 -196 75.5t-75 196.5zM231 983q0 -92 42 -145.5t139 -53.5q94 0 136 53.5t42 145.5v211q0 92 -41 146.5t-137 54.5t-138.5 -54.5t-42.5 -146.5v-211zM463 0 l680 1458h92l-680 -1458h-92zM1016 260v219q0 123 74.5 199t195.5 76q119 0 193.5 -76t74.5 -199v-219q0 -123 -74.5 -198.5t-193.5 -75.5q-121 0 -195.5 75.5t-74.5 198.5zM1106 264q0 -92 42 -146.5t138 -54.5t137 54.5t41 146.5v211q0 92 -41 146.5t-137 54.5t-138 -54.5 t-42 -146.5v-211zM1712 260v219q0 123 75 199t195 76q119 0 194 -76t75 -199v-219q0 -123 -75 -198.5t-194 -75.5q-121 0 -195.5 75.5t-74.5 198.5zM1802 264q0 -92 41 -146.5t139 -54.5q96 0 137.5 53.5t41.5 145.5v213q0 92 -41 146.5t-138 54.5q-98 0 -139 -54.5 t-41 -146.5v-211z" />
<glyph unicode="&#xe5;" horiz-adv-x="1232" d="M31 0l536 1458h99l536 -1458h-119l-127 354h-680l-126 -354h-119zM309 1597l252 301h110l252 -301h-117l-190 224l-190 -224h-117zM311 453h611l-306 858z" />
<glyph unicode="&#xe6;" horiz-adv-x="1224" d="M225 0v1458h885v-98h-774v-576h659v-98h-659v-588h774v-98h-885zM336 1597l252 301h110l252 -301h-117l-190 224l-190 -224h-117z" />
<glyph unicode="&#xe7;" horiz-adv-x="1232" d="M31 0l536 1458h99l536 -1458h-119l-127 354h-680l-126 -354h-119zM311 453h611l-306 858zM520 1597l198 301h138l-217 -301h-119z" />
<glyph unicode="&#xe8;" horiz-adv-x="1224" d="M225 0v1458h885v-98h-774v-576h659v-98h-659v-588h774v-98h-885zM371 1618v157h118v-157h-118zM797 1618v157h118v-157h-118z" />
<glyph unicode="&#xe9;" horiz-adv-x="1224" d="M225 0v1458h885v-98h-774v-576h659v-98h-659v-588h774v-98h-885zM403 1898h138l198 -301h-119z" />
<glyph unicode="&#xea;" horiz-adv-x="561" d="M178 1597l198 301h138l-217 -301h-119zM225 0v1458h111v-1458h-111z" />
<glyph unicode="&#xeb;" horiz-adv-x="561" d="M-28 1597l252 301h110l252 -301h-117l-190 224l-190 -224h-117zM225 0v1458h111v-1458h-111z" />
<glyph unicode="&#xec;" horiz-adv-x="561" d="M13 1618v157h118v-157h-118zM225 0v1458h111v-1458h-111zM439 1618v157h118v-157h-118z" />
<glyph unicode="&#xed;" horiz-adv-x="561" d="M61 1898h138l198 -301h-119zM225 0v1458h111v-1458h-111z" />
<glyph unicode="&#xee;" horiz-adv-x="1335" d="M168 729q0 123 2 213t15.5 157.5t41 120t76.5 101.5q72 72 166 110.5t199 38.5q104 0 198.5 -38.5t165.5 -110.5q49 -49 77 -101.5t41 -120t15 -157.5t2 -213t-2 -212t-15 -156.5t-41 -121t-77 -102.5q-72 -72 -166 -110.5t-198 -38.5t-198.5 39t-166.5 110 q-49 49 -76.5 102.5t-41 121t-15.5 156.5t-2 212zM279 729q0 -117 3 -200t14 -143t33.5 -104t61.5 -83q55 -55 127 -84t150 -29t149.5 28.5t126.5 84.5q39 39 61.5 83t34 104t14.5 143t3 200t-3 200t-14.5 143.5t-34 104.5t-61.5 83q-55 55 -127 83.5t-149 28.5 q-78 0 -150 -28.5t-127 -83.5q-39 -39 -61.5 -83t-33.5 -104.5t-14 -143.5t-3 -200zM572 1597l198 301h138l-217 -301h-119z" />
<glyph unicode="&#xef;" horiz-adv-x="1335" d="M168 729q0 123 2 213t15.5 157.5t41 120t76.5 101.5q72 72 166 110.5t199 38.5q104 0 198.5 -38.5t165.5 -110.5q49 -49 77 -101.5t41 -120t15 -157.5t2 -213t-2 -212t-15 -156.5t-41 -121t-77 -102.5q-72 -72 -166 -110.5t-198 -38.5t-198.5 39t-166.5 110 q-49 49 -76.5 102.5t-41 121t-15.5 156.5t-2 212zM279 729q0 -117 3 -200t14 -143t33.5 -104t61.5 -83q55 -55 127 -84t150 -29t149.5 28.5t126.5 84.5q39 39 61.5 83t34 104t14.5 143t3 200t-3 200t-14.5 143.5t-34 104.5t-61.5 83q-55 55 -127 83.5t-149 28.5 q-78 0 -150 -28.5t-127 -83.5q-39 -39 -61.5 -83t-33.5 -104.5t-14 -143.5t-3 -200zM361 1597l252 301h110l252 -301h-117l-190 224l-190 -224h-117z" />
<glyph unicode="&#xf1;" horiz-adv-x="1335" d="M168 729q0 123 2 213t15.5 157.5t41 120t76.5 101.5q72 72 166 110.5t199 38.5q104 0 198.5 -38.5t165.5 -110.5q49 -49 77 -101.5t41 -120t15 -157.5t2 -213t-2 -212t-15 -156.5t-41 -121t-77 -102.5q-72 -72 -166 -110.5t-198 -38.5t-198.5 39t-166.5 110 q-49 49 -76.5 102.5t-41 121t-15.5 156.5t-2 212zM279 729q0 -117 3 -200t14 -143t33.5 -104t61.5 -83q55 -55 127 -84t150 -29t149.5 28.5t126.5 84.5q39 39 61.5 83t34 104t14.5 143t3 200t-3 200t-14.5 143.5t-34 104.5t-61.5 83q-55 55 -127 83.5t-149 28.5 q-78 0 -150 -28.5t-127 -83.5q-39 -39 -61.5 -83t-33.5 -104.5t-14 -143.5t-3 -200zM428 1898h138l198 -301h-119z" />
<glyph unicode="&#xf2;" horiz-adv-x="1406" d="M205 473v985h110v-971q0 -90 28 -164.5t79 -127t122.5 -81t160.5 -28.5q88 0 159.5 28.5t122.5 81t79 127t28 164.5v971h110v-985q0 -106 -37 -195.5t-103.5 -154t-157.5 -100t-201 -35.5q-111 0 -202 35.5t-157.5 100t-103.5 154t-37 195.5zM609 1597l198 301h138 l-217 -301h-119z" />
<glyph unicode="&#xf3;" horiz-adv-x="1406" d="M205 473v985h110v-971q0 -90 28 -164.5t79 -127t122.5 -81t160.5 -28.5q88 0 159.5 28.5t122.5 81t79 127t28 164.5v971h110v-985q0 -106 -37 -195.5t-103.5 -154t-157.5 -100t-201 -35.5q-111 0 -202 35.5t-157.5 100t-103.5 154t-37 195.5zM398 1597l252 301h110 l252 -301h-117l-190 224l-190 -224h-117z" />
<glyph unicode="&#xf4;" horiz-adv-x="1406" d="M205 473v985h110v-971q0 -90 28 -164.5t79 -127t122.5 -81t160.5 -28.5q88 0 159.5 28.5t122.5 81t79 127t28 164.5v971h110v-985q0 -106 -37 -195.5t-103.5 -154t-157.5 -100t-201 -35.5q-111 0 -202 35.5t-157.5 100t-103.5 154t-37 195.5zM465 1898h138l198 -301h-119 z" />
<glyph unicode="&#xf5;" horiz-adv-x="501" d="M199 0v987h104v-987h-104z" />
<glyph unicode="&#xf6;" horiz-adv-x="1024" d="M205 1208l252 301h110l252 -301h-117l-190 224l-190 -224h-117z" />
<glyph unicode="&#xf7;" horiz-adv-x="1024" d="M197 1323q35 35 62.5 55.5t49 29.5t39 11t31.5 2q45 0 74.5 -13t66.5 -36q33 -20 58.5 -31.5t56.5 -11.5q23 0 48.5 10.5t72.5 57.5l61 -60q-35 -35 -62.5 -55t-50 -29.5t-39 -11.5t-30.5 -2q-43 0 -75 14.5t-66 34.5q-29 16 -56.5 29.5t-58.5 13.5q-25 0 -49.5 -10 t-71.5 -57z" />
<glyph unicode="&#xf8;" horiz-adv-x="1024" d="M209 1245v94h606v-94h-606z" />
<glyph unicode="&#xf9;" horiz-adv-x="1024" d="M174 1479h96q12 -86 76 -135.5t170 -49.5t170 49.5t76 135.5h88q-14 -131 -91 -204t-243 -73t-247 73t-95 204z" />
<glyph unicode="&#xfa;" horiz-adv-x="1024" d="M449 1317v129h126v-129h-126z" />
<glyph unicode="&#xfb;" horiz-adv-x="1024" d="M279 1386q0 49 18 91.5t50 74t74 50t91 18.5t91 -18.5t74 -50t50 -74t18 -91.5t-18 -91t-50 -74.5t-74 -51t-91 -18.5t-91 18.5t-74 51t-50 74.5t-18 91zM362 1386q0 -61 44.5 -105t105.5 -44t105.5 44t44.5 105t-44.5 104.5t-105.5 43.5t-105.5 -43t-44.5 -105z" />
<glyph unicode="&#xfc;" horiz-adv-x="1024" d="M371 -451l147 308h113l-131 -308h-129z" />
<glyph unicode="&#xfd;" horiz-adv-x="1024" d="M266 1208l199 301h137l-217 -301h-119zM567 1208l199 301h137l-219 -301h-117z" />
<glyph unicode="&#xfe;" horiz-adv-x="1024" d="M393 -143h113l147 -308h-129z" />
<glyph unicode="&#xff;" horiz-adv-x="1024" d="M205 1509h117l190 -223l190 223h117l-252 -301h-110z" />
<glyph unicode="&#x152;" horiz-adv-x="1073" d="M115 270q0 135 91 210t253 75h319v111q0 119 -63.5 180t-214.5 61q-104 0 -165 -28.5t-108 -96.5l-75 66q63 88 145 119.5t203 31.5q197 0 290 -84t93 -239v-676h-105v98q-63 -63 -129.5 -86.5t-171.5 -23.5q-111 0 -177.5 20.5t-113.5 69.5q-35 35 -53 86t-18 106z M219 272q0 -98 61.5 -145t196.5 -47q68 0 130.5 12t115.5 64q55 53 55 188v127h-307q-252 0 -252 -199zM279 1386q0 49 18 91.5t50 74t74 50t91 18.5t91 -18.5t74 -50t50 -74t18 -91.5t-18 -91t-50 -74.5t-74 -51t-91 -18.5t-91 18.5t-74 51t-50 74.5t-18 91zM362 1386 q0 -61 44.5 -105t105.5 -44t105.5 44t44.5 105t-44.5 104.5t-105.5 43.5t-105.5 -43t-44.5 -105z" />
<glyph unicode="&#x153;" horiz-adv-x="1144" d="M186 356v631h105v-612q0 -143 69.5 -219t202.5 -76t206 76.5t73 218.5v612h104v-987h-104v117q-111 -129 -291 -129q-164 0 -262 94q-102 98 -103 274zM469 1208l198 301h138l-217 -301h-119z" />
<glyph unicode="&#x178;" horiz-adv-x="1144" d="M186 356v631h105v-612q0 -143 69.5 -219t202.5 -76t206 76.5t73 218.5v612h104v-987h-104v117q-111 -129 -291 -129q-164 0 -262 94q-102 98 -103 274zM293 1229v157h118v-157h-118zM719 1229v157h118v-157h-118z" />
<glyph unicode="&#x2c6;" horiz-adv-x="1073" d="M115 270q0 135 91 210t253 75h319v111q0 119 -63.5 180t-214.5 61q-104 0 -165 -28.5t-108 -96.5l-75 66q63 88 145 119.5t203 31.5q197 0 290 -84t93 -239v-676h-105v98q-63 -63 -129.5 -86.5t-171.5 -23.5q-111 0 -177.5 20.5t-113.5 69.5q-35 35 -53 86t-18 106z M219 272q0 -98 61.5 -145t196.5 -47q68 0 130.5 12t115.5 64q55 53 55 188v127h-307q-252 0 -252 -199zM272 1509h138l198 -301h-119z" />
<glyph unicode="&#x2dc;" horiz-adv-x="1077" d="M272 494q0 106 22.5 212.5t100.5 184.5q109 109 275 108q84 0 152.5 -27.5t121.5 -80.5q78 -78 100.5 -184.5t22.5 -212.5t-22.5 -213t-100.5 -185q-53 -53 -121.5 -80.5t-152.5 -27.5q-166 0 -275 108q-78 78 -100.5 184.5t-22.5 213.5zM272 1509h138l198 -301h-119z M377 494q0 -43 2 -88.5t11 -89.5t26.5 -82.5t48.5 -69.5q84 -84 205 -84q59 0 111 21.5t93 62.5q31 31 48.5 69.5t26.5 82.5t11 89.5t2 88.5t-2 88t-11 89t-26.5 83t-48.5 69q-41 41 -93 62.5t-111 21.5q-121 0 -205 -84q-31 -31 -48.5 -69.5t-26.5 -82.5t-11 -89t-2 -88z " />
<glyph unicode="&#x2000;" horiz-adv-x="998" />
<glyph unicode="&#x2001;" horiz-adv-x="1997" />
<glyph unicode="&#x2002;" horiz-adv-x="998" />
<glyph unicode="&#x2003;" horiz-adv-x="1997" />
<glyph unicode="&#x2004;" horiz-adv-x="665" />
<glyph unicode="&#x2005;" horiz-adv-x="499" />
<glyph unicode="&#x2006;" horiz-adv-x="332" />
<glyph unicode="&#x2007;" horiz-adv-x="332" />
<glyph unicode="&#x2008;" horiz-adv-x="249" />
<glyph unicode="&#x2009;" horiz-adv-x="399" />
<glyph unicode="&#x200a;" horiz-adv-x="110" />
<glyph unicode="&#x2010;" horiz-adv-x="872" d="M168 492v96h537v-96h-537z" />
<glyph unicode="&#x2011;" horiz-adv-x="872" d="M168 492v96h537v-96h-537z" />
<glyph unicode="&#x2012;" horiz-adv-x="872" d="M168 492v96h537v-96h-537z" />
<glyph unicode="&#x2013;" horiz-adv-x="1144" d="M199 0v987h104v-117q111 129 291 129q164 0 262 -94q102 -98 102 -274v-631h-104v612q0 143 -69.5 219t-202.5 76t-206 -76.5t-73 -218.5v-612h-104zM267 1323q35 35 62.5 55.5t49 29.5t39 11t31.5 2q45 0 74.5 -13t66.5 -36q33 -20 58.5 -31.5t56.5 -11.5 q23 0 48.5 10.5t72.5 57.5l61 -60q-35 -35 -62.5 -55t-50 -29.5t-39 -11.5t-30.5 -2q-43 0 -75 14.5t-66 34.5q-29 16 -56.5 29.5t-58.5 13.5q-25 0 -49.5 -10t-71.5 -57z" />
<glyph unicode="&#x2014;" horiz-adv-x="1077" d="M141 494q0 106 22.5 212.5t100.5 184.5q109 109 275 108q84 0 152.5 -27.5t121.5 -80.5q78 -78 100.5 -184.5t22.5 -212.5t-22.5 -213t-100.5 -185q-53 -53 -121.5 -80.5t-152.5 -27.5q-166 0 -275 108q-78 78 -100.5 184.5t-22.5 213.5zM246 494q0 -43 2 -88.5t11 -89.5 t26.5 -82.5t48.5 -69.5q84 -84 205 -84q59 0 111 21.5t93 62.5q31 31 48.5 69.5t26.5 82.5t11 89.5t2 88.5t-2 88t-11 89t-26.5 83t-48.5 69q-41 41 -93 62.5t-111 21.5q-121 0 -205 -84q-31 -31 -48.5 -69.5t-26.5 -82.5t-11 -89t-2 -88zM443 1208l198 301h138l-217 -301 h-119z" />
<glyph unicode="&#x2018;" horiz-adv-x="1071" d="M141 494q0 240 104.5 372.5t291.5 132.5q186 0 290.5 -127t104.5 -354v-47h-686q0 -188 82 -288.5t239 -100.5q88 0 148.5 27.5t124.5 91.5l78 -62q-37 -37 -75 -65.5t-80 -48t-91 -28.5t-111 -9q-205 0 -312.5 129t-107.5 377zM246 555h581q-2 35 -4 60.5t-6 45t-9 39 t-15 41.5q-33 78 -101.5 122t-154.5 44t-155 -44t-101 -122q-8 -23 -14.5 -42t-10.5 -38.5t-6 -45t-4 -60.5zM269 1229v157h118v-157h-118zM695 1229v157h118v-157h-118z" />
<glyph unicode="&#x2019;" horiz-adv-x="501" d="M148 1208l198 301h138l-217 -301h-119zM199 0v987h104v-987h-104z" />
<glyph unicode="&#x201a;" horiz-adv-x="1318" d="M168 729q0 123 2 213t15.5 157.5t41 120t76.5 101.5q72 72 166 110.5t199 38.5q98 0 181 -29.5t146.5 -85t106.5 -134t61 -177.5h-112q-33 152 -134.5 240t-248.5 88q-78 0 -150 -28.5t-127 -83.5q-39 -39 -61.5 -83t-33.5 -104.5t-14 -143.5t-3 -200t3 -200t14 -143 t33.5 -104t61.5 -83q55 -55 127 -84t150 -29q147 0 250.5 88t136.5 240h108v2q-33 -186 -150.5 -298t-291.5 -128v-209h-100v209q-90 8 -171 45t-147 102q-49 49 -76.5 102.5t-41 121t-15.5 156.5t-2 212z" />
<glyph unicode="&#x201c;" horiz-adv-x="501" d="M20 1509h138l198 -301h-119zM199 0v987h104v-987h-104z" />
<glyph unicode="&#x201d;" horiz-adv-x="501" d="M-55 1208l252 301h110l252 -301h-117l-190 224l-190 -224h-117zM199 0v987h104v-987h-104z" />
<glyph unicode="&#x201e;" horiz-adv-x="1513" d="M225 0v1458h111l842 -1263v1263h110v-1458h-110l-842 1268v-1268h-111zM443 1712q35 35 62.5 55.5t49 29.5t39 11t31.5 2q45 0 74.5 -13t66.5 -36q33 -20 58.5 -31.5t56.5 -11.5q23 0 48.5 10.5t72.5 57.5l61 -60q-35 -35 -62.5 -55t-50 -29.5t-39 -11.5t-30.5 -2 q-43 0 -75 14.5t-66 34.5q-29 16 -56.5 29.5t-58.5 13.5q-25 0 -49.5 -10t-71.5 -57z" />
<glyph unicode="&#x2022;" horiz-adv-x="501" d="M-18 1229v157h118v-157h-118zM199 0v987h104v-987h-104zM408 1229v157h118v-157h-118z" />
<glyph unicode="&#x2026;" horiz-adv-x="1335" d="M168 729q0 123 2 213t15.5 157.5t41 120t76.5 101.5q72 72 166 110.5t199 38.5q104 0 198.5 -38.5t165.5 -110.5q49 -49 77 -101.5t41 -120t15 -157.5t2 -213t-2 -212t-15 -156.5t-41 -121t-77 -102.5q-72 -72 -166 -110.5t-198 -38.5t-198.5 39t-166.5 110 q-49 49 -76.5 102.5t-41 121t-15.5 156.5t-2 212zM279 729q0 -117 3 -200t14 -143t33.5 -104t61.5 -83q55 -55 127 -84t150 -29t149.5 28.5t126.5 84.5q39 39 61.5 83t34 104t14.5 143t3 200t-3 200t-14.5 143.5t-34 104.5t-61.5 83q-55 55 -127 83.5t-149 28.5 q-78 0 -150 -28.5t-127 -83.5q-39 -39 -61.5 -83t-33.5 -104.5t-14 -143.5t-3 -200zM396 1618v157h118v-157h-118zM822 1618v157h118v-157h-118z" />
<glyph unicode="&#x202f;" horiz-adv-x="399" />
<glyph unicode="&#x2039;" horiz-adv-x="1073" d="M115 270q0 135 91 210t253 75h319v111q0 119 -63.5 180t-214.5 61q-104 0 -165 -28.5t-108 -96.5l-75 66q63 88 145 119.5t203 31.5q197 0 290 -84t93 -239v-676h-105v98q-63 -63 -129.5 -86.5t-171.5 -23.5q-111 0 -177.5 20.5t-113.5 69.5q-35 35 -53 86t-18 106z M197 1323q35 35 62.5 55.5t49 29.5t39 11t31.5 2q45 0 74.5 -13t66.5 -36q33 -20 58.5 -31.5t56.5 -11.5q23 0 48.5 10.5t72.5 57.5l61 -60q-35 -35 -62.5 -55t-50 -29.5t-39 -11.5t-30.5 -2q-43 0 -75 14.5t-66 34.5q-29 16 -56.5 29.5t-58.5 13.5q-25 0 -49.5 -10 t-71.5 -57zM219 272q0 -98 61.5 -145t196.5 -47q68 0 130.5 12t115.5 64q55 53 55 188v127h-307q-252 0 -252 -199z" />
<glyph unicode="&#x203a;" horiz-adv-x="1077" d="M141 494q0 106 22.5 212.5t100.5 184.5q109 109 275 108q84 0 152.5 -27.5t121.5 -80.5q78 -78 100.5 -184.5t22.5 -212.5t-22.5 -213t-100.5 -185q-53 -53 -121.5 -80.5t-152.5 -27.5q-166 0 -275 108q-78 78 -100.5 184.5t-22.5 213.5zM224 1323q35 35 62.5 55.5 t49 29.5t39 11t31.5 2q45 0 74.5 -13t66.5 -36q33 -20 58.5 -31.5t56.5 -11.5q23 0 48.5 10.5t72.5 57.5l61 -60q-35 -35 -62.5 -55t-50 -29.5t-39 -11.5t-30.5 -2q-43 0 -75 14.5t-66 34.5q-29 16 -56.5 29.5t-58.5 13.5q-25 0 -49.5 -10t-71.5 -57zM246 494q0 -43 2 -88.5 t11 -89.5t26.5 -82.5t48.5 -69.5q84 -84 205 -84q59 0 111 21.5t93 62.5q31 31 48.5 69.5t26.5 82.5t11 89.5t2 88.5t-2 88t-11 89t-26.5 83t-48.5 69q-41 41 -93 62.5t-111 21.5q-121 0 -205 -84q-31 -31 -48.5 -69.5t-26.5 -82.5t-11 -89t-2 -88z" />
<glyph unicode="&#x205f;" horiz-adv-x="499" />
<glyph unicode="&#x20ac;" horiz-adv-x="1232" d="M31 0l536 1458h99l536 -1458h-119l-127 354h-680l-126 -354h-119zM311 453h611l-306 858zM344 1618v157h118v-157h-118zM770 1618v157h118v-157h-118z" />
<glyph unicode="&#x2122;" horiz-adv-x="1077" d="M141 494q0 106 22.5 212.5t100.5 184.5q109 109 275 108q84 0 152.5 -27.5t121.5 -80.5q78 -78 100.5 -184.5t22.5 -212.5t-22.5 -213t-100.5 -185q-53 -53 -121.5 -80.5t-152.5 -27.5q-166 0 -275 108q-78 78 -100.5 184.5t-22.5 213.5zM232 1208l252 301h110l252 -301 h-117l-190 224l-190 -224h-117zM246 494q0 -43 2 -88.5t11 -89.5t26.5 -82.5t48.5 -69.5q84 -84 205 -84q59 0 111 21.5t93 62.5q31 31 48.5 69.5t26.5 82.5t11 89.5t2 88.5t-2 88t-11 89t-26.5 83t-48.5 69q-41 41 -93 62.5t-111 21.5q-121 0 -205 -84q-31 -31 -48.5 -69.5 t-26.5 -82.5t-11 -89t-2 -88z" />
<glyph unicode="&#x25fc;" horiz-adv-x="983" d="M0 0v983h983v-983h-983z" />
</font>
</defs>
</svg>
